# WaveFront *.obj file (generated by Autodesk ATF)

mtllib 16fina-13042026-16.mtl

g Solid1

v -98.999996 -12.000000 0.000000
v -98.999996 -12.000000 30.000000
v -98.999996 12.000000 -9.000000
v -98.999996 12.000000 0.000000
v -98.999996 64.299998 -9.000000
v -98.999996 64.299998 30.000000
v -95.000000 12.000000 16.500000
v -94.992504 64.299998 16.112846
v -94.676781 64.299998 19.021894
v -94.594927 12.000000 13.682674
v -94.594927 12.000000 19.317325
v -94.452648 64.299998 13.236947
v -93.532505 64.299998 21.715009
v -93.412533 12.000000 11.093591
v -93.412533 12.000000 21.906409
v -93.103428 64.299998 10.640440
v -91.657658 64.299998 23.961606
v -91.548605 12.000000 8.942505
v -91.548605 12.000000 24.057496
v -91.060381 64.299998 8.545641
v -89.212770 64.299998 25.569320
v -89.154148 12.000000 7.403680
v -89.154148 12.000000 25.596321
v -89.099998 -12.000000 16.500000
v -89.099998 12.000000 16.500000
v -88.693972 -12.000000 14.721076
v -88.693972 -12.000000 18.278923
v -88.693972 12.000000 14.721076
v -88.693972 12.000000 18.278923
v -88.498421 64.299998 7.131913
v -87.556305 -12.000000 13.294491
v -87.556305 -12.000000 19.705509
v -87.556305 12.000000 13.294491
v -87.556305 12.000000 19.705509
v -86.884651 48.299999 -3.980558
v -86.884651 64.299998 -3.980558
v -86.493130 48.299999 -5.185518
v -86.493130 48.299999 -2.775598
v -86.493130 64.299998 -5.185518
v -86.493130 64.299998 -2.775598
v -86.423149 12.000000 6.601785
v -86.423149 12.000000 26.398215
v -86.407175 64.299998 26.400499
v -85.912333 -12.000000 12.502795
v -85.912333 -12.000000 20.497205
v -85.912333 12.000000 12.502795
v -85.912333 12.000000 20.497205
v -85.636921 64.299998 6.520304
v -85.468130 48.299999 -5.930224
v -85.468130 48.299999 -2.030892
v -85.468130 64.299998 -5.930224
v -85.468130 64.299998 -2.030892
v -84.201164 48.299999 -5.930224
v -84.201164 48.299999 -2.030892
v -84.201164 64.299998 -5.930224
v -84.201164 64.299998 -2.030892
v -84.087667 -12.000000 12.502795
v -84.087667 -12.000000 20.497205
v -84.087667 12.000000 12.502795
v -84.087667 12.000000 20.497205
v -83.576851 12.000000 6.601785
v -83.576851 12.000000 26.398215
v -83.481083 64.299998 26.383972
v -83.176165 48.299999 -5.185518
v -83.176165 48.299999 -2.775598
v -83.176165 64.299998 -5.185518
v -83.176165 64.299998 -2.775598
v -82.784643 48.299999 -3.980558
v -82.784643 64.299998 -3.980558
v -82.720890 64.299998 6.763180
v -82.443695 -12.000000 13.294491
v -82.443695 -12.000000 19.705509
v -82.443695 12.000000 13.294491
v -82.443695 12.000000 19.705509
v -81.306028 -12.000000 14.721076
v -81.306028 -12.000000 18.278923
v -81.306028 12.000000 14.721076
v -81.306028 12.000000 18.278923
v -80.900002 -12.000000 16.500000
v -80.900002 12.000000 16.500000
v -80.845852 12.000000 7.403680
v -80.845852 12.000000 25.596321
v -80.685053 64.299998 25.521157
v -80.000000 32.000000 -9.000000
v -80.000000 32.000000 7.839746
v -80.000000 64.299998 -9.000000
v -80.000000 64.299998 7.839746
v -79.732175 -12.000000 8.000000
v -79.732175 -12.000000 25.000000
v -79.732175 -4.000000 8.000000
v -79.732175 -4.000000 25.000000
v -78.451395 12.000000 8.942505
v -78.451395 12.000000 24.057496
v -78.258481 64.299998 23.885927
v -78.017907 32.000000 9.341062
v -77.519674 -12.000000 9.863380
v -77.519674 -12.000000 23.136621
v -77.519674 -4.000000 9.863380
v -77.519674 -4.000000 23.136621
v -76.587462 12.000000 11.093591
v -76.587462 12.000000 21.906409
v -76.467495 32.000000 11.284989
v -76.409130 64.299998 21.618299
v -75.933080 -12.000000 12.282066
v -75.933080 -12.000000 20.717933
v -75.933080 -4.000000 12.282066
v -75.933080 -4.000000 20.717933
v -75.444613 32.000000 13.551342
v -75.405068 12.000000 13.682674
v -75.405068 12.000000 19.317325
v -75.295353 64.299998 18.912429
v -75.105143 -12.000000 15.053684
v -75.105143 -12.000000 17.946317
v -75.105143 -4.000000 15.053684
v -75.105143 -4.000000 17.946317
v -75.100002 26.800001 3.000000
v -75.100002 32.000000 3.000000
v -75.012507 32.000000 16.000000
v -75.012507 64.299998 16.000000
v -75.000000 12.000000 16.500000
v -74.703560 26.800001 0.496962
v -74.703560 26.800001 5.503038
v -74.703560 32.000000 0.496962
v -74.703560 32.000000 5.503038
v -74.099998 26.800001 3.000000
v -74.003167 22.000000 1.831378
v -74.003167 22.000000 4.168622
v -73.715301 26.800001 0.694634
v -73.715301 26.800001 5.305367
v -73.553038 26.800001 -1.761061
v -73.553038 26.800001 7.761061
v -73.553038 32.000000 -1.761061
v -73.553038 32.000000 7.761061
v -73.244262 22.000000 -0.379227
v -73.244262 22.000000 6.379226
v -72.602897 26.800001 -1.360910
v -72.602897 26.800001 7.360910
v -71.808701 22.000000 -2.223640
v -71.808701 22.000000 8.223640
v -71.761060 26.800001 -3.553038
v -71.761060 26.800001 9.553038
v -71.761060 32.000000 -3.553038
v -71.761060 32.000000 9.553038
v -70.883331 26.800001 -2.943882
v -70.883331 26.800001 8.943882
v -69.852037 22.000000 -3.501991
v -69.852037 22.000000 9.501991
v -69.503036 26.800001 -4.703558
v -69.503036 26.800001 10.703558
v -69.503036 32.000000 -4.703558
v -69.503036 32.000000 10.703558
v -68.742948 26.800001 -3.882742
v -68.742948 26.800001 9.882742
v -67.586312 22.000000 -4.075750
v -67.586312 22.000000 10.075750
v -66.999998 12.000000 -9.000000
v -66.999998 26.800001 -5.100000
v -66.999998 26.800001 11.100000
v -66.999998 32.000000 -9.000000
v -66.999998 32.000000 -5.100000
v -66.999998 32.000000 11.100000
v -66.413689 26.800001 -4.075750
v -66.413689 26.800001 10.075750
v -65.257053 22.000000 -3.882742
v -65.257053 22.000000 9.882742
v -64.496961 26.800001 -4.703558
v -64.496961 26.800001 10.703558
v -64.496961 32.000000 -4.703558
v -64.496961 32.000000 10.703558
v -64.147964 26.800001 -3.501991
v -64.147964 26.800001 9.501991
v -63.894172 32.000000 -8.591110
v -63.873038 12.000000 -8.585426
v -63.116670 22.000000 -2.943882
v -63.116670 22.000000 8.943882
v -62.238941 26.800001 -3.553038
v -62.238941 26.800001 9.553038
v -62.238941 32.000000 -3.553038
v -62.238941 32.000000 9.553038
v -62.191300 26.800001 -2.223640
v -62.191300 26.800001 8.223640
v -62.069440 48.299999 20.834646
v -62.069440 64.299998 20.834646
v -61.677928 48.299999 19.629687
v -61.677928 48.299999 22.039607
v -61.677928 64.299998 19.629687
v -61.677928 64.299998 22.039607
v -61.397104 22.000000 -1.360910
v -61.397104 22.000000 7.360910
v -60.999999 32.000000 -7.392305
v -60.962133 12.000000 -7.370350
v -60.755734 26.800001 -0.379227
v -60.755734 26.800001 6.379226
v -60.652928 48.299999 18.884982
v -60.652928 48.299999 22.784314
v -60.652928 64.299998 18.884982
v -60.652928 64.299998 22.784314
v -60.446963 26.800001 -1.761061
v -60.446963 26.800001 7.761061
v -60.446963 32.000000 -1.761061
v -60.446963 32.000000 7.761061
v -60.284696 22.000000 0.694634
v -60.284696 22.000000 5.305367
v -59.996834 26.800001 1.831378
v -59.996834 26.800001 4.168622
v -59.899998 22.000000 3.000000
v -59.385958 48.299999 18.884982
v -59.385958 48.299999 22.784314
v -59.385958 64.299998 18.884982
v -59.385958 64.299998 22.784314
v -59.296441 26.800001 0.496962
v -59.296441 26.800001 5.503038
v -59.296441 32.000000 0.496962
v -59.296441 32.000000 5.503038
v -58.899999 26.800001 3.000000
v -58.899999 32.000000 3.000000
v -58.514719 32.000000 -5.485281
v -58.468418 12.000000 -5.438728
v -58.360958 48.299999 19.629687
v -58.360958 48.299999 22.039607
v -58.360958 64.299998 19.629687
v -58.360958 64.299998 22.039607
v -57.969441 48.299999 20.834646
v -57.969441 64.299998 20.834646
v -56.607695 32.000000 -3.000000
v -56.564202 12.000000 -2.924026
v -55.408888 32.000000 -0.105829
v -55.381050 3.384615 0.000000
v -55.381050 12.000000 0.000000
v -55.169859 3.207263 0.988105
v -55.042539 3.027351 1.990474
v -55.000000 -2.000000 -9.000000
v -55.000000 -2.000000 0.000000
v -55.000000 -2.000000 30.000000
v -55.000000 2.846154 3.000000
v -55.000000 3.384615 0.000000
v -55.000000 3.804533 -9.000000
v -55.000000 4.354894 -8.834926
v -55.000000 4.723556 -8.394204
v -55.000000 4.788804 -7.823336
v -55.000000 32.000000 3.000000
v -55.000000 32.000000 16.000000
v -55.000000 64.299998 16.000000
v -55.000000 64.299998 30.000000
v 55.000000 -2.000000 -9.000000
v 55.000000 -2.000000 0.000000
v 55.000000 -2.000000 30.000000
v 55.000000 3.384615 0.000000
v 55.000000 3.804533 -9.000000
v 55.000000 4.354894 -8.834926
v 55.000000 4.723556 -8.394204
v 55.000000 4.788804 -7.823336
v 55.000000 12.000000 -3.700000
v 55.000000 12.000000 0.000000
v 55.000000 12.000000 15.000000
v 55.000000 12.000000 30.000000
v 55.000000 51.999998 15.000000
v 55.000000 54.588189 14.659258
v 55.000000 56.999998 13.660254
v 55.000000 59.071069 12.071068
v 55.000000 60.660253 10.000000
v 55.000000 61.659260 7.588190
v 55.000000 61.999998 -3.700000
v 55.000000 61.999998 5.000000
v 63.314719 12.000000 -5.024918
v 63.314719 61.999998 -5.024918
v 64.176583 12.000000 -5.382701
v 64.176583 61.999998 -5.382701
v 64.782295 12.000000 -6.092576
v 64.782295 61.999998 -6.092576
v 65.000000 12.000000 -9.000000
v 65.000000 12.000000 -7.000000
v 65.000000 61.999998 -9.000000
v 65.000000 61.999998 -7.000000
v 75.105143 -12.000000 15.053684
v 75.105143 -12.000000 17.946317
v 75.105143 -4.000000 15.053684
v 75.105143 -4.000000 17.946317
v 75.113139 12.000000 15.000000
v 75.113139 51.999998 15.000000
v 75.161886 54.399638 14.707772
v 75.362749 56.691589 13.830969
v 75.848885 58.649783 12.468319
v 75.929675 12.000000 12.289398
v 75.933080 -12.000000 12.282066
v 75.933080 -12.000000 20.717933
v 75.933080 -4.000000 12.282066
v 75.933080 -4.000000 20.717933
v 76.776762 60.137715 10.810599
v 77.473111 12.000000 9.916237
v 77.519674 -12.000000 9.863380
v 77.519674 -12.000000 23.136621
v 77.519674 -4.000000 9.863380
v 77.519674 -4.000000 23.136621
v 78.305326 61.133409 9.071815
v 79.619761 12.000000 8.070705
v 79.732175 -12.000000 8.000000
v 79.732175 -12.000000 25.000000
v 79.732175 -4.000000 8.000000
v 79.732175 -4.000000 25.000000
v 80.247335 61.627102 7.704136
v 80.900002 -12.000000 16.500000
v 80.911293 12.000000 16.804142
v 81.184244 12.000000 15.000000
v 81.306028 -12.000000 14.721076
v 81.306028 -12.000000 18.278923
v 81.448164 12.000000 18.548044
v 82.197590 12.000000 6.900705
v 82.212944 12.000000 13.492951
v 82.443695 -12.000000 13.294491
v 82.443695 -12.000000 19.705509
v 82.572641 61.837535 6.800926
v 82.688522 12.000000 19.886307
v 83.793659 12.000000 12.581487
v 84.087667 -12.000000 12.502795
v 84.087667 -12.000000 20.497205
v 84.386692 12.000000 20.553870
v 85.000000 12.000000 6.500000
v 85.000000 61.886859 6.500000
v 85.613308 12.000000 12.446131
v 85.912333 -12.000000 12.502795
v 85.912333 -12.000000 20.497205
v 86.206341 12.000000 20.418513
v 87.311478 12.000000 13.113693
v 87.427359 61.837535 6.800926
v 87.556305 -12.000000 13.294491
v 87.556305 -12.000000 19.705509
v 87.787056 12.000000 19.507048
v 87.802410 12.000000 6.900705
v 88.551836 12.000000 14.451956
v 88.693972 -12.000000 14.721076
v 88.693972 -12.000000 18.278923
v 88.815756 12.000000 18.000000
v 89.088707 12.000000 16.195859
v 89.099998 -12.000000 16.500000
v 89.752665 61.627102 7.704136
v 90.380239 12.000000 8.070705
v 91.694670 61.133409 9.071815
v 92.526894 12.000000 9.916237
v 93.223238 60.137715 10.810599
v 94.070330 12.000000 12.289398
v 94.151115 58.649783 12.468319
v 94.637251 56.691589 13.830969
v 94.838114 54.399638 14.707772
v 94.886856 12.000000 15.000000
v 94.886856 51.999998 15.000000
v 98.999996 -12.000000 0.000000
v 98.999996 -12.000000 30.000000
v 98.999996 12.000000 -9.000000
v 98.999996 12.000000 0.000000
v 98.999996 12.000000 15.000000
v 98.999996 12.000000 30.000000
v 98.999996 51.999998 15.000000
v 98.999996 54.588189 14.659258
v 98.999996 56.999998 13.660254
v 98.999996 59.071069 12.071068
v 98.999996 60.660253 10.000000
v 98.999996 61.659260 7.588190
v 98.999996 61.999998 -9.000000
v 98.999996 61.999998 5.000000
vt -0.000000 -2.125607 0.000000
vt -0.800000 -2.125607 0.000000
vt -0.800000 -2.415889 0.000000
vt -0.800000 -2.706170 0.000000
vt -0.800000 -2.996452 0.000000
vt -0.800000 -3.286733 0.000000
vt -0.800000 -3.577015 0.000000
vt -0.800000 -3.867296 0.000000
vt -0.800000 -4.157578 0.000000
vt -0.000000 -4.157578 0.000000
vt -0.000000 -3.867296 0.000000
vt -0.000000 -3.577015 0.000000
vt -0.000000 -3.286733 0.000000
vt -0.000000 -2.996452 0.000000
vt -0.000000 -2.706170 0.000000
vt -0.000000 -2.415889 0.000000
vt -0.800000 -1.015985 0.000000
vt -0.000000 -1.015985 0.000000
vt -0.000000 -0.725704 0.000000
vt -0.000000 -0.435422 0.000000
vt -0.000000 -0.145141 0.000000
vt -0.000000 0.145141 0.000000
vt -0.000000 0.435422 0.000000
vt -0.000000 0.725704 0.000000
vt -0.000000 1.015985 0.000000
vt -0.800000 1.015985 0.000000
vt -0.800000 0.725704 0.000000
vt -0.800000 0.435422 0.000000
vt -0.800000 0.145141 0.000000
vt -0.800000 -0.145141 0.000000
vt -0.800000 -0.435422 0.000000
vt -0.800000 -0.725704 0.000000
vt 0.850000 7.973217 0.000000
vt 0.663662 7.751967 0.000000
vt 0.421793 7.593308 0.000000
vt 0.144632 7.510514 0.000000
vt -0.144632 7.510514 0.000000
vt -0.421793 7.593308 0.000000
vt -0.663662 7.751967 0.000000
vt -0.850000 7.973217 0.000000
vt -0.850000 -7.973217 0.000000
vt -0.663662 -7.751967 0.000000
vt -0.421793 -7.593308 0.000000
vt -0.144632 -7.510514 0.000000
vt 0.144632 -7.510514 0.000000
vt 0.421793 -7.593308 0.000000
vt 0.663662 -7.751967 0.000000
vt 0.850000 -7.973217 0.000000
vt -0.526783 0.000000 0.000000
vt -0.526783 0.800000 0.000000
vt -16.473217 0.800000 0.000000
vt -16.473217 0.000000 0.000000
vt 0.000000 -0.050021 0.000000
vt 3.230000 -0.050021 0.000000
vt 3.230000 -0.299315 0.000000
vt 3.230000 -0.548609 0.000000
vt 3.230000 -0.797903 0.000000
vt 3.230000 -1.047198 0.000000
vt 0.000000 -1.047198 0.000000
vt 0.000000 -1.340865 0.000000
vt 0.000000 -1.634532 0.000000
vt 0.000000 -1.928199 0.000000
vt 0.000000 -2.221866 0.000000
vt 0.000000 -2.515533 0.000000
vt 0.000000 -2.809201 0.000000
vt 0.000000 3.180318 0.000000
vt 0.000000 2.886651 0.000000
vt 0.000000 2.592983 0.000000
vt 0.000000 2.299316 0.000000
vt 0.000000 2.005649 0.000000
vt 0.000000 1.711982 0.000000
vt 0.000000 1.418315 0.000000
vt 0.000000 1.124648 0.000000
vt 0.000000 0.830981 0.000000
vt 0.000000 0.537313 0.000000
vt 0.000000 0.243646 0.000000
vt 5.230000 0.000000 0.000000
vt 5.230000 0.285599 0.000000
vt 5.230000 0.571199 0.000000
vt 5.230000 0.856798 0.000000
vt 5.230000 1.142397 0.000000
vt 5.230000 1.427997 0.000000
vt 5.230000 1.713596 0.000000
vt 5.230000 1.999195 0.000000
vt 5.230000 2.284795 0.000000
vt 5.230000 2.570394 0.000000
vt 5.230000 2.855993 0.000000
vt 5.230000 -3.141593 0.000000
vt 5.230000 -2.855993 0.000000
vt 5.230000 -2.570394 0.000000
vt 5.230000 -2.284795 0.000000
vt 5.230000 -1.999195 0.000000
vt 5.230000 -1.713596 0.000000
vt 5.230000 -1.427997 0.000000
vt 5.230000 -1.142397 0.000000
vt 5.230000 -0.856798 0.000000
vt 5.230000 -0.571199 0.000000
vt 5.230000 -0.285599 0.000000
vt 0.000000 -3.102868 0.000000
vt 0.000000 -3.102868 0.000000
vt 5.230000 3.141593 0.000000
vt 5.230000 3.141593 0.000000
vt 0.000000 -0.410000 0.000000
vt -0.177892 -0.369397 0.000000
vt -0.320551 -0.255631 0.000000
vt -0.399720 -0.091234 0.000000
vt -0.399720 0.091234 0.000000
vt -0.320551 0.255631 0.000000
vt -0.177892 0.369397 0.000000
vt 0.000000 0.410000 0.000000
vt 0.177892 0.369397 0.000000
vt 0.320551 0.255631 0.000000
vt 0.399720 0.091234 0.000000
vt 0.399720 -0.091234 0.000000
vt 0.320551 -0.255631 0.000000
vt 0.177892 -0.369397 0.000000
vt 0.000000 1.000000 0.000000
vt -0.281733 0.959493 0.000000
vt -0.540641 0.841254 0.000000
vt -0.755750 0.654861 0.000000
vt -0.909632 0.415415 0.000000
vt -0.989821 0.142315 0.000000
vt -0.989821 -0.142315 0.000000
vt -0.909632 -0.415415 0.000000
vt -0.755750 -0.654861 0.000000
vt -0.540641 -0.841254 0.000000
vt -0.281733 -0.959493 0.000000
vt 0.000000 -1.000000 0.000000
vt 0.281733 -0.959493 0.000000
vt 0.540641 -0.841254 0.000000
vt 0.755750 -0.654861 0.000000
vt 0.909632 -0.415415 0.000000
vt 0.989821 -0.142315 0.000000
vt 0.989821 0.142315 0.000000
vt 0.909632 0.415415 0.000000
vt 0.755750 0.654861 0.000000
vt 0.540641 0.841254 0.000000
vt 0.281733 0.959493 0.000000
vt 5.230000 -0.150568 0.000000
vt 1.230000 -0.150568 0.000000
vt 0.990036 -0.180196 0.000000
vt 0.760841 -0.270178 0.000000
vt 0.565022 -0.414982 0.000000
vt 0.416228 -0.605248 0.000000
vt 0.316659 -0.837289 0.000000
vt 0.267290 -1.075408 0.000000
vt 0.246246 -1.325566 0.000000
vt 0.241314 -1.570796 0.000000
vt 0.246246 -1.816026 0.000000
vt 0.267290 -2.066185 0.000000
vt 0.316659 -2.304303 0.000000
vt 0.416228 -2.536345 0.000000
vt 0.565022 -2.726611 0.000000
vt 0.760841 -2.871415 0.000000
vt 0.990036 -2.961397 0.000000
vt 1.230000 -2.991024 0.000000
vt 5.230000 -2.991024 0.000000
vt 5.230000 -2.706979 0.000000
vt 5.230000 -2.422933 0.000000
vt 5.230000 -2.138888 0.000000
vt 5.230000 -1.854842 0.000000
vt 5.230000 -1.570796 0.000000
vt 5.230000 -1.286751 0.000000
vt 5.230000 -1.002705 0.000000
vt 5.230000 -0.718660 0.000000
vt 5.230000 -0.434614 0.000000
vt 1.300000 1.448749 0.000000
vt 1.591243 1.420465 0.000000
vt 1.861830 1.309087 0.000000
vt 2.088593 1.124152 0.000000
vt 2.252116 0.881494 0.000000
vt 2.338397 0.601891 0.000000
vt 2.340050 0.309283 0.000000
vt 2.256932 0.028723 0.000000
vt 2.096161 -0.215766 0.000000
vt 1.871501 -0.403251 0.000000
vt 1.602189 -0.517678 0.000000
vt 1.311285 -0.549250 0.000000
vt 1.023695 -0.495264 0.000000
vt 0.764044 -0.360343 0.000000
vt 0.554564 -0.156038 0.000000
vt 0.413191 0.100158 0.000000
vt 0.352030 0.386308 0.000000
vt 0.376318 0.677911 0.000000
vt 0.483975 0.950000 0.000000
vt -1.200000 0.950000 0.000000
vt -1.200000 -0.950000 0.000000
vt 2.700000 -0.950000 0.000000
vt 2.700000 3.450000 0.000000
vt 1.300000 3.450000 0.000000
vt -0.698056 0.671535 0.000000
vt -0.577560 0.632384 0.000000
vt -0.503089 0.529884 0.000000
vt -0.503089 0.403187 0.000000
vt -0.577560 0.300687 0.000000
vt -0.698056 0.261535 0.000000
vt -0.818552 0.300687 0.000000
vt -0.893022 0.403187 0.000000
vt -0.893022 0.529884 0.000000
vt -0.818552 0.632384 0.000000
vt 1.783465 3.153056 0.000000
vt 1.903961 3.113904 0.000000
vt 1.978431 3.011404 0.000000
vt 1.978431 2.884707 0.000000
vt 1.903961 2.782207 0.000000
vt 1.783465 2.743056 0.000000
vt 1.662969 2.782207 0.000000
vt 1.588498 2.884707 0.000000
vt 1.588498 3.011404 0.000000
vt 1.662969 3.113904 0.000000
vt 19.388685 4.000000 0.000000
vt 19.388685 0.000000 0.000000
vt 19.799999 0.000000 0.000000
vt 19.799999 4.000000 0.000000
vt 2.388686 1.500000 0.000000
vt 4.400000 1.500000 0.000000
vt 4.400000 3.000000 0.000000
vt 0.000000 3.000000 0.000000
vt 0.000000 1.500000 0.000000
vt 0.411314 1.500000 0.000000
vt 0.492967 1.228940 0.000000
vt 0.647311 0.991624 0.000000
vt 0.861976 0.807070 0.000000
vt 1.119759 0.690070 0.000000
vt 1.400000 0.650000 0.000000
vt 1.680241 0.690070 0.000000
vt 1.938024 0.807070 0.000000
vt 2.152689 0.991624 0.000000
vt 2.307033 1.228940 0.000000
vt 1.781576 1.500000 0.000000
vt 1.678705 1.349295 0.000000
vt 1.520634 1.258149 0.000000
vt 1.338669 1.244613 0.000000
vt 1.168852 1.311369 0.000000
vt 1.044817 1.445196 0.000000
vt 0.991130 1.619586 0.000000
vt 1.018424 1.800000 0.000000
vt 1.121295 1.950705 0.000000
vt 1.279366 2.041851 0.000000
vt 1.461331 2.055387 0.000000
vt 1.631148 1.988631 0.000000
vt 1.755183 1.854804 0.000000
vt 1.808870 1.680414 0.000000
vt 21.574680 0.000000 0.000000
vt 21.574680 0.184008 0.000000
vt 21.574680 0.368015 0.000000
vt 21.574680 0.552023 0.000000
vt 21.574680 0.736030 0.000000
vt 21.574680 0.920038 0.000000
vt 21.574680 1.104045 0.000000
vt 21.574680 -1.288053 0.000000
vt 21.574680 -1.104045 0.000000
vt 21.574680 -0.920038 0.000000
vt 21.574680 -0.736030 0.000000
vt 21.574680 -0.552023 0.000000
vt 21.574680 -0.368015 0.000000
vt 21.574680 -0.184008 0.000000
vt 19.174683 1.441618 0.000000
vt 19.174683 1.257611 0.000000
vt 19.174683 1.073603 0.000000
vt 19.174683 0.889596 0.000000
vt 19.174683 0.705588 0.000000
vt 19.174683 0.521581 0.000000
vt 19.174683 0.337573 0.000000
vt 19.174683 0.153565 0.000000
vt 19.174683 -0.030442 0.000000
vt 19.174683 -0.214450 0.000000
vt 19.174683 -0.398457 0.000000
vt 19.174683 -0.582465 0.000000
vt 19.174683 -0.766472 0.000000
vt 19.174683 -0.950480 0.000000
vt 19.174683 -1.134488 0.000000
vt 19.174683 -1.134488 0.000000
vt 21.574680 1.288053 0.000000
vt 21.574680 1.288053 0.000000
vt 21.574680 0.000000 0.000000
vt 21.574680 0.184008 0.000000
vt 21.574680 0.368015 0.000000
vt 21.574680 0.552023 0.000000
vt 21.574680 0.736030 0.000000
vt 21.574680 0.920038 0.000000
vt 21.574680 1.104045 0.000000
vt 21.574680 -1.288053 0.000000
vt 21.574680 -1.104045 0.000000
vt 21.574680 -0.920038 0.000000
vt 21.574680 -0.736030 0.000000
vt 21.574680 -0.552023 0.000000
vt 21.574680 -0.368015 0.000000
vt 21.574680 -0.184008 0.000000
vt 19.174683 1.288053 0.000000
vt 19.174683 1.104045 0.000000
vt 19.174683 0.920038 0.000000
vt 19.174683 0.736030 0.000000
vt 19.174683 0.552023 0.000000
vt 19.174683 0.368015 0.000000
vt 19.174683 0.184008 0.000000
vt 19.174683 0.000000 0.000000
vt 19.174683 -0.184008 0.000000
vt 19.174683 -0.368015 0.000000
vt 19.174683 -0.552023 0.000000
vt 19.174683 -0.736030 0.000000
vt 19.174683 -0.920038 0.000000
vt 19.174683 -1.104045 0.000000
vt 19.174683 -1.288053 0.000000
vt 21.574680 1.288053 0.000000
vt -12.461314 0.785398 0.000000
vt -12.466188 0.543068 0.000000
vt -12.486275 0.297052 0.000000
vt -12.534888 0.057913 0.000000
vt -12.627676 -0.165316 0.000000
vt -12.780533 -0.366030 0.000000
vt -12.974733 -0.511566 0.000000
vt -13.207264 -0.604336 0.000000
vt -13.450000 -0.634830 0.000000
vt -13.692736 -0.604336 0.000000
vt -13.925266 -0.511566 0.000000
vt -14.119468 -0.366030 0.000000
vt -14.272324 -0.165316 0.000000
vt -14.365111 0.057913 0.000000
vt -14.413725 0.297052 0.000000
vt -14.433811 0.543068 0.000000
vt -14.438686 0.785398 0.000000
vt -14.850000 0.785398 0.000000
vt -14.850000 0.523599 0.000000
vt -14.850000 0.261799 0.000000
vt -14.850000 0.000000 0.000000
vt -14.850000 -0.261799 0.000000
vt -14.850000 -0.523599 0.000000
vt -14.850000 -0.785398 0.000000
vt -10.450000 -0.785398 0.000000
vt -10.450000 -0.523599 0.000000
vt -10.450000 -0.261799 0.000000
vt -10.450000 0.000000 0.000000
vt -10.450000 0.261799 0.000000
vt -10.450000 0.523599 0.000000
vt -10.450000 0.785398 0.000000
vt 0.800000 0.000000 0.000000
vt 0.800000 0.128805 0.000000
vt 0.800000 0.257611 0.000000
vt 0.800000 0.386416 0.000000
vt 0.800000 0.515221 0.000000
vt 0.800000 -0.644027 0.000000
vt 0.800000 -0.515221 0.000000
vt 0.800000 -0.386416 0.000000
vt 0.800000 -0.257611 0.000000
vt 0.800000 -0.128805 0.000000
vt -0.800000 0.000000 0.000000
vt -0.800000 -0.128805 0.000000
vt -0.800000 -0.257611 0.000000
vt -0.800000 -0.386416 0.000000
vt -0.800000 -0.515221 0.000000
vt -0.800000 0.644027 0.000000
vt -0.800000 0.515221 0.000000
vt -0.800000 0.386416 0.000000
vt -0.800000 0.257611 0.000000
vt -0.800000 0.128805 0.000000
vt -0.800000 -0.644027 0.000000
vt 0.800000 0.644027 0.000000
vt 0.205000 0.000000 0.000000
vt 0.165848 0.120496 0.000000
vt 0.063348 0.194967 0.000000
vt -0.063348 0.194967 0.000000
vt -0.165848 0.120496 0.000000
vt -0.205000 0.000000 0.000000
vt -0.165848 -0.120496 0.000000
vt -0.063348 -0.194967 0.000000
vt 0.063348 -0.194967 0.000000
vt 0.165848 -0.120496 0.000000
vt 0.800000 0.000000 0.000000
vt 0.800000 0.128805 0.000000
vt 0.800000 0.257611 0.000000
vt 0.800000 0.386416 0.000000
vt 0.800000 0.515221 0.000000
vt 0.800000 -0.644027 0.000000
vt 0.800000 -0.515221 0.000000
vt 0.800000 -0.386416 0.000000
vt 0.800000 -0.257611 0.000000
vt 0.800000 -0.128805 0.000000
vt -0.800000 0.000000 0.000000
vt -0.800000 -0.128805 0.000000
vt -0.800000 -0.257611 0.000000
vt -0.800000 -0.386416 0.000000
vt -0.800000 -0.515221 0.000000
vt -0.800000 0.644027 0.000000
vt -0.800000 0.515221 0.000000
vt -0.800000 0.386416 0.000000
vt -0.800000 0.257611 0.000000
vt -0.800000 0.128805 0.000000
vt -0.800000 -0.644027 0.000000
vt 0.800000 0.644027 0.000000
vt 0.205000 0.000000 0.000000
vt 0.165848 0.120496 0.000000
vt 0.063348 0.194967 0.000000
vt -0.063348 0.194967 0.000000
vt -0.165848 0.120496 0.000000
vt -0.205000 0.000000 0.000000
vt -0.165848 -0.120496 0.000000
vt -0.063348 -0.194967 0.000000
vt 0.063348 -0.194967 0.000000
vt 0.165848 -0.120496 0.000000
vt 2.001251 2.000000 0.000000
vt 2.001251 5.230000 0.000000
vt 0.000000 5.230000 0.000000
vt 0.000000 2.000000 0.000000
vt 0.716025 3.230000 0.000000
vt 0.716025 0.000000 0.000000
vt 2.400000 0.000000 0.000000
vt 2.400000 3.230000 0.000000
vt 5.000000 -0.282556 0.000000
vt 5.000000 -0.188371 0.000000
vt 5.000000 -0.094185 0.000000
vt 5.000000 0.000000 0.000000
vt 0.000000 0.000000 0.000000
vt 0.000000 -0.094185 0.000000
vt 0.000000 -0.188371 0.000000
vt 0.000000 -0.282556 0.000000
vt -0.000000 5.000000 0.000000
vt -0.200000 5.000000 0.000000
vt -0.200000 0.000000 0.000000
vt -0.000000 0.000000 0.000000
vt -0.000000 5.000000 0.000000
vt -0.841962 5.000000 0.000000
vt -0.841962 0.000000 0.000000
vt -0.000000 0.000000 0.000000
vt 0.670000 5.500000 0.000000
vt 0.802492 6.331472 0.000000
vt 0.838270 6.417658 0.000000
vt 0.909258 6.478230 0.000000
vt 1.000000 6.500000 0.000000
vt 1.200000 6.500000 0.000000
vt 1.200000 9.900000 0.000000
vt 0.300000 9.900000 0.000000
vt 0.300000 5.500000 0.000000
vt -1.200000 6.500000 0.000000
vt -1.000000 6.500000 0.000000
vt -0.909258 6.478230 0.000000
vt -0.838270 6.417658 0.000000
vt -0.802492 6.331472 0.000000
vt -0.670000 5.500000 0.000000
vt 0.200000 5.500000 0.000000
vt 0.200000 9.900000 0.000000
vt -1.200000 9.900000 0.000000
vt -2.500000 0.639261 0.000000
vt -2.500000 0.322914 0.000000
vt -2.500000 0.006566 0.000000
vt -2.500000 -0.309782 0.000000
vt -2.500000 -0.626130 0.000000
vt -2.500000 -0.942478 0.000000
vt -0.500000 -0.942478 0.000000
vt -0.500000 -0.628319 0.000000
vt -0.500000 -0.314159 0.000000
vt -0.500000 0.000000 0.000000
vt -0.500000 0.314159 0.000000
vt -0.500000 0.628319 0.000000
vt -0.500000 0.942478 0.000000
vt -3.415385 0.942478 0.000000
vt -3.397265 0.841406 0.000000
vt -3.379274 0.740334 0.000000
vt -3.361539 0.639261 0.000000
vt -2.700000 5.915385 0.000000
vt -2.700000 3.000000 0.000000
vt -1.400000 3.000000 0.000000
vt -1.400000 -0.230000 0.000000
vt -0.000000 -0.230000 0.000000
vt -0.000000 6.400000 0.000000
vt 0.483975 -0.300000 0.000000
vt 0.634106 -0.101791 0.000000
vt 0.828499 0.053251 0.000000
vt 1.055134 0.155539 0.000000
vt 1.300000 0.198749 0.000000
vt 1.300000 2.200000 0.000000
vt -0.000000 2.200000 0.000000
vt -0.310583 2.159111 0.000000
vt -0.600000 2.039231 0.000000
vt -0.848528 1.848528 0.000000
vt -1.039230 1.600000 0.000000
vt -1.159111 1.310583 0.000000
vt -1.200000 1.000000 0.000000
vt -1.200000 -0.300000 0.000000
vt -0.000000 1.810000 0.000000
vt 0.250304 1.770356 0.000000
vt 0.476106 1.655304 0.000000
vt 0.655304 1.476106 0.000000
vt 0.770356 1.250304 0.000000
vt 0.810000 1.000000 0.000000
vt 0.770356 0.749696 0.000000
vt 0.655304 0.523894 0.000000
vt 0.476106 0.344696 0.000000
vt 0.250304 0.229644 0.000000
vt -0.000000 0.190000 0.000000
vt -0.250304 0.229644 0.000000
vt -0.476106 0.344696 0.000000
vt -0.655304 0.523894 0.000000
vt -0.770356 0.749696 0.000000
vt -0.810000 1.000000 0.000000
vt -0.770356 1.250304 0.000000
vt -0.655304 1.476106 0.000000
vt -0.476106 1.655304 0.000000
vt -0.250304 1.770356 0.000000
vt -11.000000 0.087420 0.000000
vt -11.000000 0.029140 0.000000
vt -11.000000 -0.029140 0.000000
vt -11.000000 -0.087420 0.000000
vt -0.000000 -0.087420 0.000000
vt -0.000000 -0.029140 0.000000
vt -0.000000 0.029140 0.000000
vt -0.000000 0.087420 0.000000
vt 0.119547 11.000000 0.000000
vt 0.119547 0.000000 0.000000
vt 0.914382 0.000000 0.000000
vt 0.914382 -0.038105 0.000000
vt 1.014772 -0.016986 0.000000
vt 1.116610 -0.004254 0.000000
vt 1.219176 0.000000 0.000000
vt 3.962322 0.000000 0.000000
vt 3.962322 11.000000 0.000000
vt 0.914382 11.000000 0.000000
vt -1.832334 0.328880 0.000000
vt -1.889420 0.322356 0.000000
vt -1.933493 0.285489 0.000000
vt -1.950000 0.230453 0.000000
vt -1.950000 -0.350000 0.000000
vt -1.050000 -0.350000 0.000000
vt -1.050000 0.188462 0.000000
vt 3.000000 11.000000 0.000000
vt 3.000000 0.000000 0.000000
vt 3.900000 0.000000 0.000000
vt 3.900000 11.000000 0.000000
vt 0.580453 0.000000 0.000000
vt 0.580453 11.000000 0.000000
vt 0.000000 11.000000 0.000000
vt 0.000000 0.000000 0.000000
vt 1.832334 0.328880 0.000000
vt 1.050000 0.188462 0.000000
vt 1.050000 -0.350000 0.000000
vt 1.950000 -0.350000 0.000000
vt 1.950000 0.230453 0.000000
vt 1.933493 0.285489 0.000000
vt 1.889420 0.322356 0.000000
vt -0.530000 0.000000 0.000000
vt -0.530000 5.000000 0.000000
vt -0.900000 5.000000 0.000000
vt -0.900000 5.861538 0.000000
vt -3.900000 6.400000 0.000000
vt -3.900000 5.000000 0.000000
vt -2.400000 5.000000 0.000000
vt -2.400000 1.000000 0.000000
vt -2.365926 0.741181 0.000000
vt -2.266025 0.500000 0.000000
vt -2.107107 0.292893 0.000000
vt -1.900000 0.133975 0.000000
vt -1.658819 0.034074 0.000000
vt -1.400000 0.000000 0.000000
vt 0.810000 0.000000 0.000000
vt 0.770356 0.250304 0.000000
vt 0.655304 0.476106 0.000000
vt 0.476106 0.655304 0.000000
vt 0.250304 0.770356 0.000000
vt 0.000000 0.810000 0.000000
vt -0.250304 0.770356 0.000000
vt -0.476106 0.655304 0.000000
vt -0.655304 0.476106 0.000000
vt -0.770356 0.250304 0.000000
vt -0.810000 0.000000 0.000000
vt -0.770356 -0.250304 0.000000
vt -0.655304 -0.476106 0.000000
vt -0.476106 -0.655304 0.000000
vt -0.250304 -0.770356 0.000000
vt 0.000000 -0.810000 0.000000
vt 0.250304 -0.770356 0.000000
vt 0.476106 -0.655304 0.000000
vt 0.655304 -0.476106 0.000000
vt 0.770356 -0.250304 0.000000
vt -0.710000 0.000000 0.000000
vt -0.671530 0.230537 0.000000
vt -0.560290 0.436091 0.000000
vt -0.388333 0.594388 0.000000
vt -0.174295 0.688274 0.000000
vt 0.058631 0.707575 0.000000
vt 0.285204 0.650199 0.000000
vt 0.480870 0.522364 0.000000
vt 0.624426 0.337923 0.000000
vt 0.700317 0.116862 0.000000
vt 0.700317 -0.116862 0.000000
vt 0.624426 -0.337923 0.000000
vt 0.480870 -0.522364 0.000000
vt 0.285204 -0.650199 0.000000
vt 0.058631 -0.707575 0.000000
vt -0.174295 -0.688274 0.000000
vt -0.388333 -0.594388 0.000000
vt -0.560290 -0.436091 0.000000
vt -0.671530 -0.230537 0.000000
vt 0.260000 0.000000 0.000000
vt 0.260000 0.254469 0.000000
vt 0.260000 0.508938 0.000000
vt 0.260000 0.763407 0.000000
vt 0.260000 1.017876 0.000000
vt 0.260000 1.272345 0.000000
vt 0.260000 1.526814 0.000000
vt 0.260000 1.781283 0.000000
vt 0.260000 2.035752 0.000000
vt 0.260000 2.290221 0.000000
vt 0.260000 -2.544690 0.000000
vt 0.260000 -2.290221 0.000000
vt 0.260000 -2.035752 0.000000
vt 0.260000 -1.781283 0.000000
vt 0.260000 -1.526814 0.000000
vt 0.260000 -1.272345 0.000000
vt 0.260000 -1.017876 0.000000
vt 0.260000 -0.763407 0.000000
vt 0.260000 -0.508938 0.000000
vt 0.260000 -0.254469 0.000000
vt -0.260000 0.000000 0.000000
vt -0.260000 -0.254469 0.000000
vt -0.260000 -0.508938 0.000000
vt -0.260000 -0.763407 0.000000
vt -0.260000 -1.017876 0.000000
vt -0.260000 -1.272345 0.000000
vt -0.260000 -1.526814 0.000000
vt -0.260000 -1.781283 0.000000
vt -0.260000 -2.035752 0.000000
vt -0.260000 -2.290221 0.000000
vt -0.260000 2.544690 0.000000
vt -0.260000 2.290221 0.000000
vt -0.260000 2.035752 0.000000
vt -0.260000 1.781283 0.000000
vt -0.260000 1.526814 0.000000
vt -0.260000 1.272345 0.000000
vt -0.260000 1.017876 0.000000
vt -0.260000 0.763407 0.000000
vt -0.260000 0.508938 0.000000
vt -0.260000 0.254469 0.000000
vt -0.260000 -2.544690 0.000000
vt 0.260000 2.544690 0.000000
vt -0.020000 -2.230531 0.000000
vt -0.020000 -1.995738 0.000000
vt -0.020000 -1.760945 0.000000
vt -0.020000 -1.526153 0.000000
vt -0.020000 -1.291360 0.000000
vt -0.020000 -1.056567 0.000000
vt -0.020000 -0.821774 0.000000
vt -0.020000 -0.586982 0.000000
vt -0.020000 -0.352189 0.000000
vt -0.020000 -0.117396 0.000000
vt -0.020000 0.117396 0.000000
vt -0.020000 0.352189 0.000000
vt -0.020000 0.586982 0.000000
vt -0.020000 0.821774 0.000000
vt -0.020000 1.056567 0.000000
vt -0.020000 1.291360 0.000000
vt -0.020000 1.526153 0.000000
vt -0.020000 1.760945 0.000000
vt -0.020000 1.995738 0.000000
vt -0.500000 0.000000 0.000000
vt -0.500000 -0.234793 0.000000
vt -0.500000 -0.469585 0.000000
vt -0.500000 -0.704378 0.000000
vt -0.500000 -0.939171 0.000000
vt -0.500000 -1.173964 0.000000
vt -0.500000 -1.408756 0.000000
vt -0.500000 -1.643549 0.000000
vt -0.500000 -1.878342 0.000000
vt -0.500000 2.347927 0.000000
vt -0.500000 2.113134 0.000000
vt -0.500000 1.878342 0.000000
vt -0.500000 1.643549 0.000000
vt -0.500000 1.408756 0.000000
vt -0.500000 1.173964 0.000000
vt -0.500000 0.939171 0.000000
vt -0.500000 0.704378 0.000000
vt -0.500000 0.469585 0.000000
vt -0.500000 0.234793 0.000000
vt -0.500000 -2.113135 0.000000
vt -0.020000 2.230531 0.000000
vt -0.020000 2.230531 0.000000
vt -0.500000 -2.113135 0.000000
vt 0.710000 0.000000 0.000000
vt 0.671530 0.230537 0.000000
vt 0.560290 0.436091 0.000000
vt 0.388333 0.594388 0.000000
vt 0.174295 0.688274 0.000000
vt -0.058631 0.707575 0.000000
vt -0.285204 0.650199 0.000000
vt -0.480870 0.522364 0.000000
vt -0.624426 0.337923 0.000000
vt -0.700317 0.116862 0.000000
vt -0.700317 -0.116862 0.000000
vt -0.624426 -0.337923 0.000000
vt -0.480870 -0.522364 0.000000
vt -0.285204 -0.650199 0.000000
vt -0.058631 -0.707575 0.000000
vt 0.174295 -0.688274 0.000000
vt 0.388333 -0.594388 0.000000
vt 0.560290 -0.436091 0.000000
vt 0.671530 -0.230537 0.000000
vt 16.600000 2.000000 0.000000
vt 16.600000 0.000000 0.000000
vt 19.799999 0.000000 0.000000
vt 19.799999 5.230000 0.000000
vt 17.900000 5.230000 0.000000
vt 17.900000 2.000000 0.000000
vt 5.538105 0.338462 0.000000
vt 5.500000 0.338462 0.000000
vt 5.500000 -0.200000 0.000000
vt -5.500000 -0.200000 0.000000
vt -5.500000 0.338462 0.000000
vt -5.500000 1.200000 0.000000
vt -9.900000 1.200000 0.000000
vt -9.900000 -1.200000 0.000000
vt 9.900000 -1.200000 0.000000
vt 9.900000 1.200000 0.000000
vt 5.538105 1.200000 0.000000
vt 3.400000 0.000000 0.000000
vt 3.400000 5.000000 0.000000
vt 0.000000 5.000000 0.000000
vt 0.000000 0.000000 0.000000
vt 17.411314 0.000000 0.000000
vt 17.411314 4.000000 0.000000
vt 15.400000 4.000000 0.000000
vt 15.400000 0.000000 0.000000
vt -16.473217 0.800000 0.000000
vt -16.473217 0.000000 0.000000
vt -0.526783 0.000000 0.000000
vt -0.526783 0.800000 0.000000
vt -5.230000 -0.900000 0.000000
vt 0.000000 -0.900000 0.000000
vt 0.000000 0.000000 0.000000
vt 2.400000 0.000000 0.000000
vt 2.400000 3.000000 0.000000
vt -5.230000 3.000000 0.000000
vt 1.200000 -6.700000 0.000000
vt 1.158543 -6.387304 0.000000
vt 1.037035 -6.096213 0.000000
vt 0.843873 -5.846842 0.000000
vt 0.592403 -5.656420 0.000000
vt 0.300000 -5.538105 0.000000
vt 0.300000 -9.900000 0.000000
vt 1.200000 -9.900000 0.000000
vt 7.400000 0.500000 0.000000
vt 7.365926 0.758819 0.000000
vt 7.266026 1.000000 0.000000
vt 7.107107 1.207107 0.000000
vt 6.900000 1.366025 0.000000
vt 6.658819 1.465926 0.000000
vt 6.400000 1.500000 0.000000
vt 2.400000 1.500000 0.000000
vt 2.400000 3.000000 0.000000
vt 0.000000 3.000000 0.000000
vt 0.000000 0.000000 0.000000
vt 2.400000 0.000000 0.000000
vt 2.400000 -0.900000 0.000000
vt 7.400000 -0.900000 0.000000
vt 18.809999 1.650000 0.000000
vt 18.769398 1.472108 0.000000
vt 18.655630 1.329449 0.000000
vt 18.491234 1.250280 0.000000
vt 18.308767 1.250280 0.000000
vt 18.144369 1.329449 0.000000
vt 18.030603 1.472108 0.000000
vt 17.990000 1.650000 0.000000
vt 18.030603 1.827892 0.000000
vt 18.144369 1.970551 0.000000
vt 18.308767 2.049721 0.000000
vt 18.491234 2.049721 0.000000
vt 18.655630 1.970551 0.000000
vt 18.769398 1.827892 0.000000
vt 1.810000 1.650000 0.000000
vt 1.769397 1.472108 0.000000
vt 1.655631 1.329449 0.000000
vt 1.491234 1.250280 0.000000
vt 1.308766 1.250280 0.000000
vt 1.144369 1.329449 0.000000
vt 1.030603 1.472108 0.000000
vt 0.990000 1.650000 0.000000
vt 1.030603 1.827892 0.000000
vt 1.144369 1.970551 0.000000
vt 1.308766 2.049721 0.000000
vt 1.491234 2.049721 0.000000
vt 1.655631 1.970551 0.000000
vt 1.769397 1.827892 0.000000
vt 1.926783 0.800000 0.000000
vt 2.148032 0.986338 0.000000
vt 2.306692 1.228207 0.000000
vt 2.389486 1.505368 0.000000
vt 2.389486 1.794632 0.000000
vt 2.306692 2.071793 0.000000
vt 2.148032 2.313662 0.000000
vt 1.926783 2.500000 0.000000
vt 17.873217 2.500000 0.000000
vt 17.651968 2.313662 0.000000
vt 17.493307 2.071793 0.000000
vt 17.410515 1.794632 0.000000
vt 17.410515 1.505368 0.000000
vt 17.493307 1.228207 0.000000
vt 17.651968 0.986338 0.000000
vt 17.873217 0.800000 0.000000
vt 0.000000 0.000000 0.000000
vt 19.799999 0.000000 0.000000
vt 19.799999 3.000000 0.000000
vt 0.000000 3.000000 0.000000
vt -5.500000 -0.200000 0.000000
vt -5.500000 6.430000 0.000000
vt -9.900000 6.430000 0.000000
vt -9.900000 -1.200000 0.000000
vt 9.900000 -1.200000 0.000000
vt 9.900000 1.200000 0.000000
vt 5.500000 1.200000 0.000000
vt 5.500000 -0.200000 0.000000
vn -0.052678 0.000000 -0.085000
vn -0.052678 0.000000 -0.085000
vn -0.074803 0.000000 -0.066366
vn -0.090669 0.000000 -0.042179
vn -0.098949 0.000000 -0.014463
vn -0.098949 0.000000 0.014463
vn -0.090669 0.000000 0.042179
vn -0.074803 0.000000 0.066366
vn -0.052678 0.000000 0.085000
vn -0.052678 0.000000 0.085000
vn -0.074803 0.000000 0.066366
vn -0.090669 0.000000 0.042179
vn -0.098949 0.000000 0.014463
vn -0.098949 0.000000 -0.014463
vn -0.090669 0.000000 -0.042179
vn -0.074803 0.000000 -0.066366
vn 0.052678 0.000000 -0.085000
vn 0.052678 0.000000 -0.085000
vn 0.074803 0.000000 -0.066366
vn 0.090669 0.000000 -0.042179
vn 0.098949 0.000000 -0.014463
vn 0.098949 0.000000 0.014463
vn 0.090669 0.000000 0.042179
vn 0.074803 0.000000 0.066366
vn 0.052678 0.000000 0.085000
vn 0.052678 0.000000 0.085000
vn 0.074803 0.000000 0.066366
vn 0.090669 0.000000 0.042179
vn 0.098949 0.000000 0.014463
vn 0.098949 0.000000 -0.014463
vn 0.090669 0.000000 -0.042179
vn 0.074803 0.000000 -0.066366
vn 0.000000 -0.100000 0.000000
vn 0.000000 -0.100000 0.000000
vn 0.000000 -0.100000 0.000000
vn 0.000000 -0.100000 0.000000
vn 0.000000 -0.100000 0.000000
vn 0.000000 -0.100000 0.000000
vn 0.000000 -0.100000 0.000000
vn 0.000000 -0.100000 0.000000
vn 0.000000 -0.100000 0.000000
vn 0.000000 -0.100000 0.000000
vn 0.000000 -0.100000 0.000000
vn 0.000000 -0.100000 0.000000
vn 0.000000 -0.100000 0.000000
vn 0.000000 -0.100000 0.000000
vn 0.000000 -0.100000 0.000000
vn 0.000000 -0.100000 0.000000
vn 0.000000 0.000000 0.100000
vn 0.000000 0.000000 0.100000
vn 0.000000 0.000000 0.100000
vn 0.000000 0.000000 0.100000
vn -0.099875 0.000000 0.005000
vn -0.099875 0.000000 0.005000
vn -0.095554 0.000000 0.029487
vn -0.085325 0.000000 0.052150
vn -0.069821 0.000000 0.071589
vn -0.050000 0.000000 0.086603
vn -0.050000 0.000000 0.086603
vn -0.022791 0.000000 0.097368
vn 0.006369 0.000000 0.099797
vn 0.034984 0.000000 0.093681
vn 0.060604 0.000000 0.079544
vn 0.081034 0.000000 0.058596
vn 0.094526 0.000000 0.032631
vn 0.099925 0.000000 0.003872
vn 0.096768 0.000000 -0.025219
vn 0.085325 0.000000 -0.052150
vn 0.066577 0.000000 -0.074616
vn 0.042128 0.000000 -0.090693
vn 0.014072 0.000000 -0.099005
vn -0.015189 0.000000 -0.098840
vn -0.043149 0.000000 -0.090212
vn -0.067415 0.000000 -0.073859
vn -0.085909 0.000000 -0.051183
vn -0.097046 0.000000 -0.024124
vn -0.100000 0.000000 0.000000
vn -0.095949 0.000000 -0.028173
vn -0.084125 0.000000 -0.054064
vn -0.065486 0.000000 -0.075575
vn -0.041542 0.000000 -0.090963
vn -0.014231 0.000000 -0.098982
vn 0.014231 0.000000 -0.098982
vn 0.041542 0.000000 -0.090963
vn 0.065486 0.000000 -0.075575
vn 0.084125 0.000000 -0.054064
vn 0.095949 0.000000 -0.028173
vn 0.100000 0.000000 0.000000
vn 0.095949 0.000000 0.028173
vn 0.084125 0.000000 0.054064
vn 0.065486 0.000000 0.075575
vn 0.041542 0.000000 0.090963
vn 0.014231 0.000000 0.098982
vn -0.014231 0.000000 0.098982
vn -0.041542 0.000000 0.090963
vn -0.065486 0.000000 0.075575
vn -0.084125 0.000000 0.054064
vn -0.095949 0.000000 0.028173
vn 0.099925 0.000000 0.003872
vn 0.099925 0.000000 0.003872
vn 0.100000 0.000000 0.000000
vn 0.100000 0.000000 0.000000
vn 0.000000 0.100000 0.000000
vn 0.000000 0.100000 0.000000
vn 0.000000 0.100000 0.000000
vn 0.000000 0.100000 0.000000
vn 0.000000 0.100000 0.000000
vn 0.000000 0.100000 0.000000
vn 0.000000 0.100000 0.000000
vn 0.000000 0.100000 0.000000
vn 0.000000 0.100000 0.000000
vn 0.000000 0.100000 0.000000
vn 0.000000 0.100000 0.000000
vn 0.000000 0.100000 0.000000
vn 0.000000 0.100000 0.000000
vn 0.000000 0.100000 0.000000
vn 0.000000 0.100000 0.000000
vn 0.000000 0.100000 0.000000
vn 0.000000 0.100000 0.000000
vn 0.000000 0.100000 0.000000
vn 0.000000 0.100000 0.000000
vn 0.000000 0.100000 0.000000
vn 0.000000 0.100000 0.000000
vn 0.000000 0.100000 0.000000
vn 0.000000 0.100000 0.000000
vn 0.000000 0.100000 0.000000
vn 0.000000 0.100000 0.000000
vn 0.000000 0.100000 0.000000
vn 0.000000 0.100000 0.000000
vn 0.000000 0.100000 0.000000
vn 0.000000 0.100000 0.000000
vn 0.000000 0.100000 0.000000
vn 0.000000 0.100000 0.000000
vn 0.000000 0.100000 0.000000
vn 0.000000 0.100000 0.000000
vn 0.000000 0.100000 0.000000
vn 0.000000 0.100000 0.000000
vn 0.000000 0.100000 0.000000
vn -0.098869 0.000000 0.015000
vn -0.098869 0.000000 0.015000
vn -0.098381 0.000000 0.017922
vn -0.096372 0.000000 0.026690
vn -0.091512 0.000000 0.040317
vn -0.082236 0.000000 0.056897
vn -0.066948 0.000000 0.074283
vn -0.047537 0.000000 0.087978
vn -0.024278 0.000000 0.097008
vn 0.000000 0.000000 0.100000
vn 0.024278 0.000000 0.097008
vn 0.047537 0.000000 0.087978
vn 0.066948 0.000000 0.074283
vn 0.082236 0.000000 0.056897
vn 0.091512 0.000000 0.040317
vn 0.096372 0.000000 0.026690
vn 0.098381 0.000000 0.017922
vn 0.098869 0.000000 0.015000
vn 0.098869 0.000000 0.015000
vn 0.090703 0.000000 0.042106
vn 0.075269 0.000000 0.065838
vn 0.053802 0.000000 0.084293
vn 0.028024 0.000000 0.095993
vn 0.000000 0.000000 0.100000
vn -0.028024 0.000000 0.095993
vn -0.053802 0.000000 0.084293
vn -0.075269 0.000000 0.065838
vn -0.090703 0.000000 0.042106
vn 0.000000 0.100000 0.000000
vn 0.000000 0.100000 0.000000
vn 0.000000 0.100000 0.000000
vn 0.000000 0.100000 0.000000
vn 0.000000 0.100000 0.000000
vn 0.000000 0.100000 0.000000
vn 0.000000 0.100000 0.000000
vn 0.000000 0.100000 0.000000
vn 0.000000 0.100000 0.000000
vn 0.000000 0.100000 0.000000
vn 0.000000 0.100000 0.000000
vn 0.000000 0.100000 0.000000
vn 0.000000 0.100000 0.000000
vn 0.000000 0.100000 0.000000
vn 0.000000 0.100000 0.000000
vn 0.000000 0.100000 0.000000
vn 0.000000 0.100000 0.000000
vn 0.000000 0.100000 0.000000
vn 0.000000 0.100000 0.000000
vn 0.000000 0.100000 0.000000
vn 0.000000 0.100000 0.000000
vn 0.000000 0.100000 0.000000
vn 0.000000 0.100000 0.000000
vn 0.000000 0.100000 0.000000
vn 0.000000 0.100000 0.000000
vn 0.000000 0.100000 0.000000
vn 0.000000 0.100000 0.000000
vn 0.000000 0.100000 0.000000
vn 0.000000 0.100000 0.000000
vn 0.000000 0.100000 0.000000
vn 0.000000 0.100000 0.000000
vn 0.000000 0.100000 0.000000
vn 0.000000 0.100000 0.000000
vn 0.000000 0.100000 0.000000
vn 0.000000 0.100000 0.000000
vn 0.000000 0.100000 0.000000
vn 0.000000 0.100000 0.000000
vn 0.000000 0.100000 0.000000
vn 0.000000 0.100000 0.000000
vn 0.000000 0.100000 0.000000
vn 0.000000 0.100000 0.000000
vn 0.000000 0.100000 0.000000
vn 0.000000 0.100000 0.000000
vn 0.000000 0.100000 0.000000
vn 0.000000 0.000000 0.100000
vn 0.000000 0.000000 0.100000
vn 0.000000 0.000000 0.100000
vn 0.000000 0.000000 0.100000
vn 0.000000 0.100000 0.000000
vn 0.000000 0.100000 0.000000
vn 0.000000 0.100000 0.000000
vn 0.000000 0.100000 0.000000
vn 0.000000 0.100000 0.000000
vn 0.000000 0.100000 0.000000
vn 0.000000 0.100000 0.000000
vn 0.000000 0.100000 0.000000
vn 0.000000 0.100000 0.000000
vn 0.000000 0.100000 0.000000
vn 0.000000 0.100000 0.000000
vn 0.000000 0.100000 0.000000
vn 0.000000 0.100000 0.000000
vn 0.000000 0.100000 0.000000
vn 0.000000 0.100000 0.000000
vn 0.000000 0.100000 0.000000
vn 0.000000 0.100000 0.000000
vn 0.000000 0.100000 0.000000
vn 0.000000 0.100000 0.000000
vn 0.000000 0.100000 0.000000
vn 0.000000 0.100000 0.000000
vn 0.000000 0.100000 0.000000
vn 0.000000 0.100000 0.000000
vn 0.000000 0.100000 0.000000
vn 0.000000 0.100000 0.000000
vn 0.000000 0.100000 0.000000
vn 0.000000 0.100000 0.000000
vn 0.000000 0.100000 0.000000
vn 0.000000 0.100000 0.000000
vn -0.100000 0.000000 0.000000
vn -0.090097 0.000000 -0.043388
vn -0.062349 0.000000 -0.078183
vn -0.022252 0.000000 -0.097493
vn 0.022252 0.000000 -0.097493
vn 0.062349 0.000000 -0.078183
vn 0.090097 0.000000 -0.043388
vn 0.100000 0.000000 0.000000
vn 0.090097 0.000000 0.043388
vn 0.062349 0.000000 0.078183
vn 0.022252 0.000000 0.097493
vn -0.022252 0.000000 0.097493
vn -0.062349 0.000000 0.078183
vn -0.090097 0.000000 0.043388
vn 0.093067 0.000000 0.036585
vn 0.099724 0.000000 -0.007418
vn 0.086630 0.000000 -0.049952
vn 0.056378 0.000000 -0.082593
vn 0.014959 0.000000 -0.098875
vn -0.029423 0.000000 -0.095574
vn -0.067977 0.000000 -0.073343
vn -0.093067 0.000000 -0.036585
vn -0.099724 0.000000 0.007418
vn -0.086630 0.000000 0.049952
vn -0.056378 0.000000 0.082593
vn -0.014959 0.000000 0.098875
vn 0.029423 0.000000 0.095574
vn 0.067977 0.000000 0.073343
vn 0.093067 0.000000 0.036585
vn 0.093067 0.000000 0.036585
vn 0.100000 0.000000 0.000000
vn 0.100000 0.000000 0.000000
vn -0.100000 0.000000 0.000000
vn -0.090097 0.000000 -0.043388
vn -0.062349 0.000000 -0.078183
vn -0.022252 0.000000 -0.097493
vn 0.022252 0.000000 -0.097493
vn 0.062349 0.000000 -0.078183
vn 0.090097 0.000000 -0.043388
vn 0.100000 0.000000 0.000000
vn 0.090097 0.000000 0.043388
vn 0.062349 0.000000 0.078183
vn 0.022252 0.000000 0.097493
vn -0.022252 0.000000 0.097493
vn -0.062349 0.000000 0.078183
vn -0.090097 0.000000 0.043388
vn 0.100000 0.000000 0.000000
vn 0.090097 0.000000 -0.043388
vn 0.062349 0.000000 -0.078183
vn 0.022252 0.000000 -0.097493
vn -0.022252 0.000000 -0.097493
vn -0.062349 0.000000 -0.078183
vn -0.090097 0.000000 -0.043388
vn -0.100000 0.000000 0.000000
vn -0.090097 0.000000 0.043388
vn -0.062349 0.000000 0.078183
vn -0.022252 0.000000 0.097493
vn 0.022252 0.000000 0.097493
vn 0.062349 0.000000 0.078183
vn 0.090097 0.000000 0.043388
vn 0.100000 0.000000 0.000000
vn 0.100000 0.000000 0.000000
vn 0.000000 0.000000 0.100000
vn 0.000000 0.023996 0.097078
vn 0.000000 0.046917 0.088311
vn 0.000000 0.066499 0.074685
vn 0.000000 0.081383 0.058110
vn 0.000000 0.091335 0.040718
vn 0.000000 0.096274 0.027042
vn 0.000000 0.098365 0.018007
vn 0.000000 0.098869 0.015000
vn 0.000000 0.098365 0.018007
vn 0.000000 0.096274 0.027042
vn 0.000000 0.091335 0.040718
vn 0.000000 0.081383 0.058110
vn 0.000000 0.066499 0.074685
vn 0.000000 0.046917 0.088311
vn 0.000000 0.023996 0.097078
vn 0.000000 0.000000 0.100000
vn 0.000000 0.000000 0.100000
vn 0.000000 0.025882 0.096593
vn 0.000000 0.050000 0.086603
vn 0.000000 0.070711 0.070711
vn 0.000000 0.086603 0.050000
vn 0.000000 0.096593 0.025882
vn 0.000000 0.100000 0.000000
vn 0.000000 0.100000 0.000000
vn 0.000000 0.096593 0.025882
vn 0.000000 0.086603 0.050000
vn 0.000000 0.070711 0.070711
vn 0.000000 0.050000 0.086603
vn 0.000000 0.025882 0.096593
vn 0.000000 0.000000 0.100000
vn -0.100000 0.000000 0.000000
vn -0.080902 0.000000 0.058779
vn -0.030902 0.000000 0.095106
vn 0.030902 0.000000 0.095106
vn 0.080902 0.000000 0.058779
vn 0.100000 0.000000 0.000000
vn 0.080902 0.000000 -0.058779
vn 0.030902 0.000000 -0.095106
vn -0.030902 0.000000 -0.095106
vn -0.080902 0.000000 -0.058779
vn -0.100000 0.000000 0.000000
vn -0.080902 0.000000 -0.058779
vn -0.030902 0.000000 -0.095106
vn 0.030902 0.000000 -0.095106
vn 0.080902 0.000000 -0.058779
vn 0.100000 0.000000 0.000000
vn 0.080902 0.000000 0.058779
vn 0.030902 0.000000 0.095106
vn -0.030902 0.000000 0.095106
vn -0.080902 0.000000 0.058779
vn 0.100000 0.000000 0.000000
vn 0.100000 0.000000 0.000000
vn 0.000000 0.100000 0.000000
vn 0.000000 0.100000 0.000000
vn 0.000000 0.100000 0.000000
vn 0.000000 0.100000 0.000000
vn 0.000000 0.100000 0.000000
vn 0.000000 0.100000 0.000000
vn 0.000000 0.100000 0.000000
vn 0.000000 0.100000 0.000000
vn 0.000000 0.100000 0.000000
vn 0.000000 0.100000 0.000000
vn -0.100000 0.000000 0.000000
vn -0.080902 0.000000 0.058779
vn -0.030902 0.000000 0.095106
vn 0.030902 0.000000 0.095106
vn 0.080902 0.000000 0.058779
vn 0.100000 0.000000 0.000000
vn 0.080902 0.000000 -0.058779
vn 0.030902 0.000000 -0.095106
vn -0.030902 0.000000 -0.095106
vn -0.080902 0.000000 -0.058779
vn -0.100000 0.000000 0.000000
vn -0.080902 0.000000 -0.058779
vn -0.030902 0.000000 -0.095106
vn 0.030902 0.000000 -0.095106
vn 0.080902 0.000000 -0.058779
vn 0.100000 0.000000 0.000000
vn 0.080902 0.000000 0.058779
vn 0.030902 0.000000 0.095106
vn -0.030902 0.000000 0.095106
vn -0.080902 0.000000 0.058779
vn 0.100000 0.000000 0.000000
vn 0.100000 0.000000 0.000000
vn 0.000000 0.100000 0.000000
vn 0.000000 0.100000 0.000000
vn 0.000000 0.100000 0.000000
vn 0.000000 0.100000 0.000000
vn 0.000000 0.100000 0.000000
vn 0.000000 0.100000 0.000000
vn 0.000000 0.100000 0.000000
vn 0.000000 0.100000 0.000000
vn 0.000000 0.100000 0.000000
vn 0.000000 0.100000 0.000000
vn 0.000000 0.000000 -0.100000
vn 0.000000 0.000000 -0.100000
vn 0.000000 0.000000 -0.100000
vn 0.000000 0.000000 -0.100000
vn 0.100000 0.000000 0.000000
vn 0.100000 0.000000 0.000000
vn 0.100000 0.000000 0.000000
vn 0.100000 0.000000 0.000000
vn -0.100000 0.000000 0.000000
vn -0.089115 0.000000 -0.045371
vn -0.058829 0.000000 -0.080865
vn -0.015736 0.000000 -0.098754
vn -0.015736 0.000000 -0.098754
vn -0.058829 0.000000 -0.080865
vn -0.089115 0.000000 -0.045371
vn -0.100000 0.000000 0.000000
vn -0.100000 0.000000 0.000000
vn -0.100000 0.000000 0.000000
vn -0.100000 0.000000 0.000000
vn -0.100000 0.000000 0.000000
vn -0.015736 0.000000 -0.098754
vn -0.015736 0.000000 -0.098754
vn -0.015736 0.000000 -0.098754
vn -0.015736 0.000000 -0.098754
vn 0.000000 -0.100000 0.000000
vn 0.000000 -0.100000 0.000000
vn 0.000000 -0.100000 0.000000
vn 0.000000 -0.100000 0.000000
vn 0.000000 -0.100000 0.000000
vn 0.000000 -0.100000 0.000000
vn 0.000000 -0.100000 0.000000
vn 0.000000 -0.100000 0.000000
vn 0.000000 -0.100000 0.000000
vn 0.000000 0.100000 0.000000
vn 0.000000 0.100000 0.000000
vn 0.000000 0.100000 0.000000
vn 0.000000 0.100000 0.000000
vn 0.000000 0.100000 0.000000
vn 0.000000 0.100000 0.000000
vn 0.000000 0.100000 0.000000
vn 0.000000 0.100000 0.000000
vn 0.000000 0.100000 0.000000
vn 0.096825 0.000000 -0.025000
vn 0.086965 0.000000 -0.049367
vn 0.071097 0.000000 -0.070323
vn 0.050316 0.000000 -0.086420
vn 0.026058 0.000000 -0.096545
vn 0.000000 0.000000 -0.100000
vn 0.000000 0.000000 -0.100000
vn 0.025882 0.000000 -0.096593
vn 0.050000 0.000000 -0.086603
vn 0.070711 0.000000 -0.070711
vn 0.086603 0.000000 -0.050000
vn 0.096593 0.000000 -0.025882
vn 0.100000 0.000000 0.000000
vn 0.100000 0.000000 0.000000
vn 0.099646 0.000000 -0.008413
vn 0.098585 0.000000 -0.016766
vn 0.096825 0.000000 -0.025000
vn 0.100000 0.000000 0.000000
vn 0.100000 0.000000 0.000000
vn 0.100000 0.000000 0.000000
vn 0.100000 0.000000 0.000000
vn 0.100000 0.000000 0.000000
vn 0.100000 0.000000 0.000000
vn 0.000000 0.100000 0.000000
vn 0.000000 0.100000 0.000000
vn 0.000000 0.100000 0.000000
vn 0.000000 0.100000 0.000000
vn 0.000000 0.100000 0.000000
vn 0.000000 0.100000 0.000000
vn 0.000000 0.100000 0.000000
vn 0.000000 0.100000 0.000000
vn 0.000000 0.100000 0.000000
vn 0.000000 0.100000 0.000000
vn 0.000000 0.100000 0.000000
vn 0.000000 0.100000 0.000000
vn 0.000000 0.100000 0.000000
vn 0.000000 0.100000 0.000000
vn 0.000000 0.100000 0.000000
vn 0.000000 0.100000 0.000000
vn 0.000000 0.100000 0.000000
vn 0.000000 0.100000 0.000000
vn 0.000000 0.100000 0.000000
vn 0.000000 0.100000 0.000000
vn 0.000000 0.100000 0.000000
vn 0.000000 0.100000 0.000000
vn 0.000000 0.100000 0.000000
vn 0.000000 0.100000 0.000000
vn 0.000000 0.100000 0.000000
vn 0.000000 0.100000 0.000000
vn 0.000000 0.100000 0.000000
vn 0.000000 0.100000 0.000000
vn 0.000000 0.100000 0.000000
vn 0.000000 0.100000 0.000000
vn 0.000000 0.100000 0.000000
vn 0.000000 0.100000 0.000000
vn 0.000000 0.100000 0.000000
vn 0.000000 0.100000 0.000000
vn 0.000000 0.098427 0.017666
vn 0.000000 0.091902 -0.039420
vn 0.000000 0.055036 -0.083493
vn 0.000000 0.000000 -0.100000
vn 0.000000 0.000000 -0.100000
vn 0.000000 0.055036 -0.083493
vn 0.000000 0.091902 -0.039420
vn 0.000000 0.098427 0.017666
vn 0.000000 0.098427 0.017666
vn 0.000000 0.098427 0.017666
vn 0.000000 0.098427 0.017666
vn 0.000000 0.098427 0.017666
vn 0.000000 0.098427 0.017666
vn 0.000000 0.098427 0.017666
vn 0.000000 0.098427 0.017666
vn 0.000000 0.098427 0.017666
vn 0.000000 0.098427 0.017666
vn 0.000000 0.098427 0.017666
vn -0.100000 0.000000 0.000000
vn -0.100000 0.000000 0.000000
vn -0.100000 0.000000 0.000000
vn -0.100000 0.000000 0.000000
vn -0.100000 0.000000 0.000000
vn -0.100000 0.000000 0.000000
vn -0.100000 0.000000 0.000000
vn 0.000000 -0.100000 0.000000
vn 0.000000 -0.100000 0.000000
vn 0.000000 -0.100000 0.000000
vn 0.000000 -0.100000 0.000000
vn 0.000000 0.000000 -0.100000
vn 0.000000 0.000000 -0.100000
vn 0.000000 0.000000 -0.100000
vn 0.000000 0.000000 -0.100000
vn 0.100000 0.000000 0.000000
vn 0.100000 0.000000 0.000000
vn 0.100000 0.000000 0.000000
vn 0.100000 0.000000 0.000000
vn 0.100000 0.000000 0.000000
vn 0.100000 0.000000 0.000000
vn 0.100000 0.000000 0.000000
vn -0.100000 0.000000 0.000000
vn -0.100000 0.000000 0.000000
vn -0.100000 0.000000 0.000000
vn -0.100000 0.000000 0.000000
vn -0.100000 0.000000 0.000000
vn -0.100000 0.000000 0.000000
vn -0.100000 0.000000 0.000000
vn -0.100000 0.000000 0.000000
vn -0.100000 0.000000 0.000000
vn -0.100000 0.000000 0.000000
vn -0.100000 0.000000 0.000000
vn -0.100000 0.000000 0.000000
vn -0.100000 0.000000 0.000000
vn -0.100000 0.000000 0.000000
vn 0.000000 0.100000 0.000000
vn 0.000000 0.100000 0.000000
vn 0.000000 0.100000 0.000000
vn 0.000000 0.100000 0.000000
vn 0.000000 0.100000 0.000000
vn 0.000000 0.100000 0.000000
vn 0.000000 0.100000 0.000000
vn 0.000000 0.100000 0.000000
vn 0.000000 0.100000 0.000000
vn 0.000000 0.100000 0.000000
vn 0.000000 0.100000 0.000000
vn 0.000000 0.100000 0.000000
vn 0.000000 0.100000 0.000000
vn 0.000000 0.100000 0.000000
vn 0.000000 0.100000 0.000000
vn 0.000000 0.100000 0.000000
vn 0.000000 0.100000 0.000000
vn 0.000000 0.100000 0.000000
vn 0.000000 0.100000 0.000000
vn 0.000000 0.100000 0.000000
vn 0.000000 0.100000 0.000000
vn 0.000000 0.100000 0.000000
vn 0.000000 0.100000 0.000000
vn 0.000000 0.100000 0.000000
vn 0.000000 0.100000 0.000000
vn 0.000000 0.100000 0.000000
vn 0.000000 0.100000 0.000000
vn 0.000000 0.100000 0.000000
vn 0.000000 0.100000 0.000000
vn 0.000000 0.100000 0.000000
vn 0.000000 0.100000 0.000000
vn 0.000000 0.100000 0.000000
vn 0.000000 0.100000 0.000000
vn 0.000000 0.100000 0.000000
vn 0.000000 0.100000 0.000000
vn 0.000000 0.100000 0.000000
vn 0.000000 0.100000 0.000000
vn 0.000000 0.100000 0.000000
vn 0.000000 0.100000 0.000000
vn -0.100000 0.000000 0.000000
vn -0.095106 0.000000 0.030902
vn -0.080902 0.000000 0.058779
vn -0.058779 0.000000 0.080902
vn -0.030902 0.000000 0.095106
vn 0.000000 0.000000 0.100000
vn 0.030902 0.000000 0.095106
vn 0.058779 0.000000 0.080902
vn 0.080902 0.000000 0.058779
vn 0.095106 0.000000 0.030902
vn 0.100000 0.000000 0.000000
vn 0.095106 0.000000 -0.030902
vn 0.080902 0.000000 -0.058779
vn 0.058779 0.000000 -0.080902
vn 0.030902 0.000000 -0.095106
vn 0.000000 0.000000 -0.100000
vn -0.030902 0.000000 -0.095106
vn -0.058779 0.000000 -0.080902
vn -0.080902 0.000000 -0.058779
vn -0.095106 0.000000 -0.030902
vn -0.100000 0.000000 0.000000
vn -0.095106 0.000000 -0.030902
vn -0.080902 0.000000 -0.058779
vn -0.058779 0.000000 -0.080902
vn -0.030902 0.000000 -0.095106
vn 0.000000 0.000000 -0.100000
vn 0.030902 0.000000 -0.095106
vn 0.058779 0.000000 -0.080902
vn 0.080902 0.000000 -0.058779
vn 0.095106 0.000000 -0.030902
vn 0.100000 0.000000 0.000000
vn 0.095106 0.000000 0.030902
vn 0.080902 0.000000 0.058779
vn 0.058779 0.000000 0.080902
vn 0.030902 0.000000 0.095106
vn 0.000000 0.000000 0.100000
vn -0.030902 0.000000 0.095106
vn -0.058779 0.000000 0.080902
vn -0.080902 0.000000 0.058779
vn -0.095106 0.000000 0.030902
vn 0.100000 0.000000 0.000000
vn 0.100000 0.000000 0.000000
vn 0.100000 0.000000 0.000000
vn 0.094582 0.000000 -0.032470
vn 0.078914 0.000000 -0.061421
vn 0.054695 0.000000 -0.083717
vn 0.024549 0.000000 -0.096940
vn -0.008258 0.000000 -0.099658
vn -0.040170 0.000000 -0.091577
vn -0.067728 0.000000 -0.073572
vn -0.087947 0.000000 -0.047595
vn -0.098636 0.000000 -0.016459
vn -0.098636 0.000000 0.016459
vn -0.087947 0.000000 0.047595
vn -0.067728 0.000000 0.073572
vn -0.040170 0.000000 0.091577
vn -0.008258 0.000000 0.099658
vn 0.024549 0.000000 0.096940
vn 0.054695 0.000000 0.083717
vn 0.078914 0.000000 0.061421
vn 0.094582 0.000000 0.032470
vn -0.100000 0.000000 0.000000
vn -0.094582 0.000000 -0.032470
vn -0.078914 0.000000 -0.061421
vn -0.054695 0.000000 -0.083717
vn -0.024549 0.000000 -0.096940
vn 0.008258 0.000000 -0.099658
vn 0.040170 0.000000 -0.091577
vn 0.067728 0.000000 -0.073572
vn 0.087947 0.000000 -0.047595
vn 0.098636 0.000000 -0.016459
vn 0.098636 0.000000 0.016459
vn 0.087947 0.000000 0.047595
vn 0.067728 0.000000 0.073572
vn 0.040170 0.000000 0.091577
vn 0.008258 0.000000 0.099658
vn -0.024549 0.000000 0.096940
vn -0.054695 0.000000 0.083717
vn -0.078914 0.000000 0.061421
vn -0.094582 0.000000 0.032470
vn 0.098636 0.000000 -0.016459
vn 0.100000 0.000000 0.000000
vn 0.100000 0.000000 0.000000
vn 0.098636 0.000000 -0.016459
vn 0.000000 0.100000 0.000000
vn 0.000000 0.100000 0.000000
vn 0.000000 0.100000 0.000000
vn 0.000000 0.100000 0.000000
vn 0.000000 0.100000 0.000000
vn 0.000000 0.100000 0.000000
vn 0.000000 0.100000 0.000000
vn 0.000000 0.100000 0.000000
vn 0.000000 0.100000 0.000000
vn 0.000000 0.100000 0.000000
vn 0.000000 0.100000 0.000000
vn 0.000000 0.100000 0.000000
vn 0.000000 0.100000 0.000000
vn 0.000000 0.100000 0.000000
vn 0.000000 0.100000 0.000000
vn 0.000000 0.100000 0.000000
vn 0.000000 0.100000 0.000000
vn 0.000000 0.100000 0.000000
vn 0.000000 0.100000 0.000000
vn 0.000000 0.000000 -0.100000
vn 0.000000 0.000000 -0.100000
vn 0.000000 0.000000 -0.100000
vn 0.000000 0.000000 -0.100000
vn 0.000000 0.000000 -0.100000
vn 0.000000 0.000000 -0.100000
vn 0.000000 0.000000 -0.100000
vn 0.000000 0.000000 -0.100000
vn 0.000000 0.000000 -0.100000
vn 0.000000 0.000000 -0.100000
vn 0.000000 0.000000 -0.100000
vn 0.000000 0.000000 -0.100000
vn 0.000000 0.000000 -0.100000
vn 0.000000 0.000000 -0.100000
vn 0.000000 0.000000 -0.100000
vn 0.000000 0.000000 -0.100000
vn 0.000000 0.000000 -0.100000
vn 0.000000 0.000000 -0.100000
vn 0.000000 0.000000 -0.100000
vn 0.000000 0.000000 -0.100000
vn 0.000000 0.000000 -0.100000
vn 0.000000 0.000000 0.100000
vn 0.000000 0.000000 0.100000
vn 0.000000 0.000000 0.100000
vn 0.000000 0.000000 0.100000
vn 0.000000 0.000000 -0.100000
vn 0.000000 0.000000 -0.100000
vn 0.000000 0.000000 -0.100000
vn 0.000000 0.000000 -0.100000
vn -0.100000 0.000000 0.000000
vn -0.100000 0.000000 0.000000
vn -0.100000 0.000000 0.000000
vn -0.100000 0.000000 0.000000
vn -0.100000 0.000000 0.000000
vn -0.100000 0.000000 0.000000
vn 0.000000 -0.100000 0.000000
vn 0.000000 -0.100000 0.000000
vn 0.000000 -0.100000 0.000000
vn 0.000000 -0.100000 0.000000
vn 0.000000 -0.100000 0.000000
vn 0.000000 -0.100000 0.000000
vn 0.000000 -0.100000 0.000000
vn 0.000000 -0.100000 0.000000
vn 0.100000 0.000000 0.000000
vn 0.100000 0.000000 0.000000
vn 0.100000 0.000000 0.000000
vn 0.100000 0.000000 0.000000
vn 0.100000 0.000000 0.000000
vn 0.100000 0.000000 0.000000
vn 0.100000 0.000000 0.000000
vn 0.100000 0.000000 0.000000
vn 0.100000 0.000000 0.000000
vn 0.100000 0.000000 0.000000
vn 0.100000 0.000000 0.000000
vn 0.100000 0.000000 0.000000
vn 0.100000 0.000000 0.000000
vn 0.100000 0.000000 0.000000
vn 0.000000 -0.100000 0.000000
vn 0.000000 -0.100000 0.000000
vn 0.000000 -0.100000 0.000000
vn 0.000000 -0.100000 0.000000
vn 0.000000 -0.100000 0.000000
vn 0.000000 -0.100000 0.000000
vn 0.000000 -0.100000 0.000000
vn 0.000000 -0.100000 0.000000
vn 0.000000 -0.100000 0.000000
vn 0.000000 -0.100000 0.000000
vn 0.000000 -0.100000 0.000000
vn 0.000000 -0.100000 0.000000
vn 0.000000 -0.100000 0.000000
vn 0.000000 -0.100000 0.000000
vn 0.000000 -0.100000 0.000000
vn 0.000000 -0.100000 0.000000
vn 0.000000 -0.100000 0.000000
vn 0.000000 -0.100000 0.000000
vn 0.000000 -0.100000 0.000000
vn 0.000000 -0.100000 0.000000
vn 0.000000 -0.100000 0.000000
vn 0.000000 -0.100000 0.000000
vn 0.000000 -0.100000 0.000000
vn 0.000000 -0.100000 0.000000
vn 0.000000 -0.100000 0.000000
vn 0.000000 -0.100000 0.000000
vn 0.000000 -0.100000 0.000000
vn 0.000000 -0.100000 0.000000
vn 0.000000 -0.100000 0.000000
vn 0.000000 -0.100000 0.000000
vn 0.000000 -0.100000 0.000000
vn 0.000000 -0.100000 0.000000
vn 0.000000 -0.100000 0.000000
vn 0.000000 -0.100000 0.000000
vn 0.000000 -0.100000 0.000000
vn 0.000000 -0.100000 0.000000
vn 0.000000 -0.100000 0.000000
vn 0.000000 -0.100000 0.000000
vn 0.000000 -0.100000 0.000000
vn 0.000000 -0.100000 0.000000
vn 0.000000 -0.100000 0.000000
vn 0.000000 -0.100000 0.000000
vn 0.000000 -0.100000 0.000000
vn 0.000000 -0.100000 0.000000
vn 0.000000 -0.100000 0.000000
vn 0.000000 -0.100000 0.000000
vn 0.000000 -0.100000 0.000000
vn 0.000000 -0.100000 0.000000
vn 0.000000 0.000000 0.100000
vn 0.000000 0.000000 0.100000
vn 0.000000 0.000000 0.100000
vn 0.000000 0.000000 0.100000
vn 0.000000 0.000000 0.100000
vn 0.000000 0.000000 0.100000
vn 0.000000 0.000000 0.100000
vn 0.000000 0.000000 0.100000
usemtl 191,191,191
f 299/1/1 297/2/2 293/16/16
f 293/16/16 297/2/2 291/3/3
f 293/16/16 291/3/3 287/15/15
f 287/15/15 291/3/3 285/4/4
f 287/15/15 285/4/4 277/14/14
f 277/14/14 285/4/4 275/5/5
f 277/14/14 275/5/5 278/13/13
f 278/13/13 275/5/5 276/6/6
f 278/13/13 276/6/6 288/12/12
f 288/12/12 276/6/6 286/7/7
f 288/12/12 286/7/7 294/11/11
f 294/11/11 286/7/7 292/8/8
f 294/11/11 292/8/8 300/10/10
f 300/10/10 292/8/8 298/9/9
f 88/17/17 90/18/18 96/32/32
f 96/32/32 90/18/18 98/19/19
f 96/32/32 98/19/19 104/31/31
f 104/31/31 98/19/19 106/20/20
f 104/31/31 106/20/20 112/30/30
f 112/30/30 106/20/20 114/21/21
f 112/30/30 114/21/21 113/29/29
f 113/29/29 114/21/21 115/22/22
f 113/29/29 115/22/22 105/28/28
f 105/28/28 115/22/22 107/23/23
f 105/28/28 107/23/23 97/27/27
f 97/27/27 107/23/23 99/24/24
f 97/27/27 99/24/24 89/26/26
f 89/26/26 99/24/24 91/25/25
f 299/33/33 293/34/34 90/48/48
f 90/48/48 293/34/34 98/47/47
f 98/47/47 293/34/34 287/35/35
f 98/47/47 287/35/35 106/46/46
f 106/46/46 287/35/35 277/36/36
f 106/46/46 277/36/36 114/45/45
f 114/45/45 277/36/36 278/37/37
f 114/45/45 278/37/37 115/44/44
f 115/44/44 278/37/37 107/43/43
f 107/43/43 278/37/37 288/38/38
f 107/43/43 288/38/38 99/42/42
f 99/42/42 288/38/38 294/39/39
f 99/42/42 294/39/39 91/41/41
f 91/41/41 294/39/39 300/40/40
f 299/50/50 90/51/51 297/49/49
f 297/49/49 90/51/51 88/52/52
f 111/76/76 119/53/53 120/77/77
f 120/77/77 119/53/53 118/54/54
f 120/77/77 118/54/54 109/98/98
f 109/98/98 118/54/54 108/55/55
f 109/98/98 108/55/55 102/56/56
f 109/98/98 102/56/56 100/97/97
f 100/97/97 102/56/56 95/57/57
f 100/97/97 95/57/57 92/96/96
f 92/96/96 95/57/57 85/58/58
f 92/96/96 85/58/58 81/95/95
f 81/95/95 85/58/58 87/59/59
f 81/95/95 87/59/59 70/60/60
f 81/95/95 70/60/60 61/94/94
f 61/94/94 70/60/60 48/61/61
f 61/94/94 48/61/61 41/93/93
f 41/93/93 48/61/61 30/62/62
f 41/93/93 30/62/62 22/92/92
f 22/92/92 30/62/62 20/63/63
f 22/92/92 20/63/63 18/91/91
f 18/91/91 20/63/63 16/64/64
f 18/91/91 16/64/64 14/90/90
f 14/90/90 16/64/64 12/65/65
f 14/90/90 12/65/65 10/89/89
f 10/89/89 12/65/65 8/99/99
f 10/89/89 8/100/100 7/88/88
f 7/101/101 8/66/66 9/67/67
f 7/102/102 9/67/67 11/87/87
f 11/87/87 9/67/67 13/68/68
f 11/87/87 13/68/68 15/86/86
f 15/86/86 13/68/68 17/69/69
f 15/86/86 17/69/69 19/85/85
f 19/85/85 17/69/69 21/70/70
f 19/85/85 21/70/70 23/84/84
f 23/84/84 21/70/70 43/71/71
f 23/84/84 43/71/71 42/83/83
f 42/83/83 43/71/71 62/82/82
f 62/82/82 43/71/71 63/72/72
f 62/82/82 63/72/72 82/81/81
f 82/81/81 63/72/72 83/73/73
f 82/81/81 83/73/73 93/80/80
f 93/80/80 83/73/73 94/74/74
f 93/80/80 94/74/74 101/79/79
f 101/79/79 94/74/74 103/75/75
f 101/79/79 103/75/75 110/78/78
f 110/78/78 103/75/75 111/76/76
f 110/78/78 111/76/76 120/77/77
f 28/104/104 10/127/127 25/103/103
f 25/103/103 10/127/127 7/128/128
f 25/103/103 7/128/128 11/129/129
f 10/127/127 28/104/104 14/126/126
f 14/126/126 28/104/104 33/105/105
f 14/126/126 33/105/105 18/125/125
f 18/125/125 33/105/105 22/124/124
f 22/124/124 33/105/105 46/106/106
f 22/124/124 46/106/106 41/123/123
f 41/123/123 46/106/106 59/107/107
f 41/123/123 59/107/107 61/122/122
f 61/122/122 59/107/107 81/121/121
f 81/121/121 59/107/107 73/108/108
f 81/121/121 73/108/108 92/120/120
f 92/120/120 73/108/108 100/119/119
f 100/119/119 73/108/108 77/109/109
f 100/119/119 77/109/109 109/118/118
f 109/118/118 77/109/109 80/110/110
f 109/118/118 80/110/110 120/117/117
f 120/117/117 80/110/110 110/138/138
f 110/138/138 80/110/110 78/111/111
f 110/138/138 78/111/111 101/137/137
f 101/137/137 78/111/111 74/112/112
f 101/137/137 74/112/112 93/136/136
f 93/136/136 74/112/112 82/135/135
f 82/135/135 74/112/112 60/113/113
f 82/135/135 60/113/113 62/134/134
f 62/134/134 60/113/113 42/133/133
f 42/133/133 60/113/113 47/114/114
f 42/133/133 47/114/114 23/132/132
f 23/132/132 47/114/114 34/115/115
f 23/132/132 34/115/115 19/131/131
f 19/131/131 34/115/115 15/130/130
f 15/130/130 34/115/115 29/116/116
f 15/130/130 29/116/116 11/129/129
f 11/129/129 29/116/116 25/103/103
f 346/140/140 344/141/141 345/139/139
f 345/139/139 344/141/141 343/142/142
f 345/139/139 343/142/142 341/166/166
f 341/166/166 343/142/142 342/143/143
f 341/166/166 342/143/143 340/144/144
f 341/166/166 340/144/144 339/165/165
f 339/165/165 340/144/144 338/145/145
f 339/165/165 338/145/145 337/164/164
f 337/164/164 338/145/145 336/146/146
f 337/164/164 336/146/146 329/163/163
f 329/163/163 336/146/146 325/147/147
f 329/163/163 325/147/147 318/162/162
f 318/162/162 325/147/147 319/148/148
f 318/162/162 319/148/148 312/149/149
f 318/162/162 312/149/149 308/161/161
f 308/161/161 312/149/149 301/150/150
f 308/161/161 301/150/150 296/160/160
f 296/160/160 301/150/150 295/151/151
f 296/160/160 295/151/151 290/159/159
f 290/159/159 295/151/151 289/152/152
f 290/159/159 289/152/152 284/158/158
f 284/158/158 289/152/152 283/153/153
f 284/158/158 283/153/153 282/154/154
f 284/158/158 282/154/154 279/157/157
f 279/157/157 282/154/154 281/155/155
f 279/157/157 281/155/155 280/156/156
f 111/168/168 186/207/207 119/167/167
f 119/167/167 186/207/207 196/208/208
f 119/167/167 196/208/208 243/190/190
f 243/190/190 196/208/208 209/209/209
f 243/190/190 209/209/209 221/210/210
f 186/207/207 111/168/168 183/206/206
f 183/206/206 111/168/168 103/169/169
f 183/206/206 103/169/169 187/205/205
f 187/205/205 103/169/169 94/170/170
f 187/205/205 94/170/170 197/204/204
f 197/204/204 94/170/170 244/189/189
f 197/204/204 244/189/189 210/203/203
f 210/203/203 244/189/189 222/202/202
f 222/202/202 244/189/189 224/201/201
f 224/201/201 244/189/189 243/190/190
f 224/201/201 243/190/190 221/210/210
f 94/170/170 83/171/171 244/189/189
f 244/189/189 83/171/171 63/172/172
f 244/189/189 63/172/172 6/188/188
f 6/188/188 63/172/172 43/173/173
f 6/188/188 43/173/173 21/174/174
f 21/174/174 17/175/175 6/188/188
f 6/188/188 17/175/175 13/176/176
f 6/188/188 13/176/176 9/177/177
f 9/177/177 8/178/178 6/188/188
f 6/188/188 8/178/178 5/187/187
f 5/187/187 8/178/178 12/179/179
f 5/187/187 12/179/179 16/180/180
f 16/180/180 20/181/181 5/187/187
f 5/187/187 20/181/181 40/195/195
f 5/187/187 40/195/195 36/196/196
f 20/181/181 30/182/182 40/195/195
f 40/195/195 30/182/182 52/194/194
f 52/194/194 30/182/182 48/183/183
f 52/194/194 48/183/183 56/193/193
f 56/193/193 48/183/183 70/184/184
f 56/193/193 70/184/184 67/192/192
f 67/192/192 70/184/184 87/185/185
f 67/192/192 87/185/185 69/191/191
f 69/191/191 87/185/185 86/186/186
f 69/191/191 86/186/186 66/200/200
f 66/200/200 86/186/186 55/199/199
f 55/199/199 86/186/186 51/198/198
f 51/198/198 86/186/186 5/187/187
f 51/198/198 5/187/187 39/197/197
f 39/197/197 5/187/187 36/196/196
f 345/212/212 351/213/213 346/211/211
f 346/211/211 351/213/213 353/214/214
f 255/216/216 256/217/217 279/215/215
f 279/215/215 256/217/217 307/242/242
f 279/215/215 307/242/242 303/243/243
f 352/218/218 317/240/240 256/217/217
f 256/217/217 317/240/240 313/241/241
f 256/217/217 313/241/241 307/242/242
f 351/219/219 328/238/238 352/218/218
f 352/218/218 328/238/238 323/239/239
f 352/218/218 323/239/239 317/240/240
f 328/238/238 351/219/219 333/237/237
f 333/237/237 351/219/219 345/220/220
f 333/237/237 345/220/220 334/236/236
f 334/236/236 345/220/220 330/235/235
f 330/235/235 345/220/220 341/221/221
f 330/235/235 341/221/221 324/234/234
f 324/234/234 341/221/221 339/222/222
f 324/234/234 339/222/222 320/233/233
f 320/233/233 339/222/222 337/223/223
f 320/233/233 337/223/223 329/224/224
f 329/224/224 318/225/225 320/233/233
f 320/233/233 318/225/225 308/226/226
f 320/233/233 308/226/226 296/227/227
f 320/233/233 296/227/227 314/232/232
f 314/232/232 296/227/227 290/228/228
f 314/232/232 290/228/228 309/231/231
f 309/231/231 290/228/228 284/229/229
f 309/231/231 284/229/229 304/230/230
f 304/230/230 284/229/229 279/215/215
f 304/230/230 279/215/215 303/243/243
f 332/245/245 333/265/265 335/244/244
f 335/244/244 333/265/265 334/266/266
f 335/244/244 334/266/266 331/257/257
f 331/257/257 334/266/266 330/267/267
f 331/257/257 330/267/267 326/256/256
f 326/256/256 330/267/267 324/268/268
f 326/256/256 324/268/268 321/255/255
f 321/255/255 324/268/268 320/269/269
f 321/255/255 320/269/269 315/254/254
f 315/254/254 320/269/269 314/270/270
f 315/254/254 314/270/270 310/253/253
f 310/253/253 314/270/270 309/271/271
f 310/253/253 309/271/271 305/252/252
f 305/252/252 309/271/271 304/272/272
f 305/252/252 304/273/273 302/251/251
f 302/274/274 304/258/258 303/259/259
f 302/275/275 303/259/259 306/250/250
f 306/250/250 303/259/259 307/260/260
f 306/250/250 307/260/260 311/249/249
f 311/249/249 307/260/260 313/261/261
f 311/249/249 313/261/261 316/248/248
f 316/248/248 313/261/261 317/262/262
f 316/248/248 317/262/262 322/247/247
f 322/247/247 317/262/262 323/263/263
f 322/247/247 323/263/263 327/246/246
f 327/246/246 323/263/263 328/264/264
f 327/246/246 328/264/264 332/245/245
f 332/245/245 328/264/264 333/265/265
f 76/277/277 78/296/296 79/276/276
f 79/276/276 78/296/296 80/297/297
f 79/276/276 80/297/297 75/289/289
f 75/289/289 80/297/297 77/298/298
f 75/289/289 77/298/298 71/288/288
f 71/288/288 77/298/298 73/299/299
f 71/288/288 73/299/299 57/287/287
f 57/287/287 73/299/299 59/300/300
f 57/287/287 59/300/300 44/286/286
f 44/286/286 59/300/300 46/301/301
f 44/286/286 46/301/301 31/285/285
f 31/285/285 46/301/301 33/302/302
f 31/285/285 33/302/302 26/284/284
f 26/284/284 33/302/302 28/303/303
f 26/284/284 28/303/303 24/283/283
f 24/283/283 28/303/303 25/304/304
f 24/305/305 25/290/290 27/282/282
f 27/282/282 25/290/290 29/291/291
f 27/282/282 29/291/291 32/281/281
f 32/281/281 29/291/291 34/292/292
f 32/281/281 34/292/292 45/280/280
f 45/280/280 34/292/292 47/293/293
f 45/280/280 47/293/293 58/279/279
f 58/279/279 47/293/293 60/294/294
f 58/279/279 60/294/294 72/278/278
f 72/278/278 60/294/294 74/295/295
f 72/278/278 74/295/295 76/277/277
f 76/277/277 74/295/295 78/296/296
f 280/306/306 281/307/307 257/336/336
f 257/336/336 281/307/307 258/335/335
f 258/335/335 281/307/307 282/308/308
f 258/335/335 282/308/308 259/334/334
f 259/334/334 282/308/308 283/309/309
f 259/334/334 283/309/309 260/333/333
f 260/333/333 283/309/309 289/310/310
f 260/333/333 289/310/310 261/332/332
f 261/332/332 289/310/310 295/311/311
f 261/332/332 295/311/311 262/331/331
f 262/331/331 295/311/311 301/312/312
f 262/331/331 301/312/312 312/313/313
f 262/331/331 312/313/313 264/330/330
f 264/330/330 312/313/313 319/314/314
f 264/330/330 319/314/314 360/329/329
f 360/329/329 319/314/314 325/315/315
f 360/329/329 325/315/315 358/328/328
f 358/328/328 325/315/315 336/316/316
f 358/328/328 336/316/316 338/317/317
f 358/328/328 338/317/317 357/327/327
f 357/327/327 338/317/317 340/318/318
f 357/327/327 340/318/318 356/326/326
f 356/326/326 340/318/318 342/319/319
f 356/326/326 342/319/319 355/325/325
f 355/325/325 342/319/319 343/320/320
f 355/325/325 343/320/320 354/324/324
f 354/324/324 343/320/320 344/321/321
f 354/324/324 344/321/321 353/323/323
f 353/323/323 344/321/321 346/322/322
f 221/338/338 219/356/356 224/337/337
f 224/337/337 219/356/356 223/347/347
f 224/337/337 223/347/347 222/346/346
f 222/346/346 223/347/347 220/348/348
f 222/346/346 220/348/348 210/345/345
f 210/345/345 220/348/348 208/349/349
f 210/345/345 208/349/349 197/344/344
f 197/344/344 208/349/349 195/350/350
f 197/344/344 195/350/350 187/343/343
f 187/343/343 195/350/350 185/351/351
f 187/343/343 185/351/351 183/342/342
f 183/342/342 185/351/351 182/357/357
f 183/358/358 182/352/352 186/341/341
f 186/341/341 182/352/352 184/353/353
f 186/341/341 184/353/353 196/340/340
f 196/340/340 184/353/353 194/354/354
f 196/340/340 194/354/354 209/339/339
f 209/339/339 194/354/354 207/355/355
f 209/339/339 207/355/355 221/338/338
f 221/338/338 207/355/355 219/356/356
f 219/360/360 184/363/363 223/359/359
f 223/359/359 184/363/363 182/364/364
f 223/359/359 182/364/364 220/368/368
f 220/368/368 182/364/364 185/365/365
f 220/368/368 185/365/365 208/367/367
f 208/367/367 185/365/365 195/366/366
f 207/361/361 194/362/362 219/360/360
f 219/360/360 194/362/362 184/363/363
f 66/370/370 64/388/388 69/369/369
f 69/369/369 64/388/388 68/379/379
f 69/369/369 68/379/379 67/378/378
f 67/378/378 68/379/379 65/380/380
f 67/378/378 65/380/380 56/377/377
f 56/377/377 65/380/380 54/381/381
f 56/377/377 54/381/381 52/376/376
f 52/376/376 54/381/381 50/382/382
f 52/376/376 50/382/382 40/375/375
f 40/375/375 50/382/382 38/383/383
f 40/375/375 38/383/383 36/374/374
f 36/374/374 38/383/383 35/389/389
f 36/390/390 35/384/384 39/373/373
f 39/373/373 35/384/384 37/385/385
f 39/373/373 37/385/385 51/372/372
f 51/372/372 37/385/385 49/386/386
f 51/372/372 49/386/386 55/371/371
f 55/371/371 49/386/386 53/387/387
f 55/371/371 53/387/387 66/370/370
f 66/370/370 53/387/387 64/388/388
f 64/392/392 37/395/395 68/391/391
f 68/391/391 37/395/395 35/396/396
f 68/391/391 35/396/396 65/400/400
f 65/400/400 35/396/396 38/397/397
f 65/400/400 38/397/397 54/399/399
f 54/399/399 38/397/397 50/398/398
f 53/393/393 49/394/394 64/392/392
f 64/392/392 49/394/394 37/395/395
f 119/402/402 243/403/403 118/401/401
f 118/401/401 243/403/403 242/404/404
f 85/406/406 84/407/407 87/405/405
f 87/405/405 84/407/407 86/408/408
f 274/416/416 272/409/409 270/415/415
f 270/415/415 272/409/409 269/410/410
f 270/415/415 269/410/410 268/414/414
f 268/414/414 269/410/410 267/411/411
f 268/414/414 267/411/411 266/413/413
f 266/413/413 267/411/411 265/412/412
f 271/417/417 272/418/418 273/420/420
f 273/420/420 272/418/418 274/419/419
f 265/421/421 253/422/422 266/424/424
f 266/424/424 253/422/422 263/423/423
f 253/425/425 265/426/426 254/433/433
f 254/433/433 265/426/426 350/432/432
f 350/432/432 265/426/426 267/427/427
f 350/432/432 267/427/427 349/431/431
f 349/431/431 267/427/427 269/428/428
f 349/431/431 269/428/428 272/429/429
f 272/429/429 271/430/430 349/431/431
f 273/434/434 274/435/435 359/442/442
f 359/442/442 274/435/435 270/436/436
f 359/442/442 270/436/436 268/437/437
f 359/442/442 268/437/437 360/441/441
f 360/441/441 268/437/437 266/438/438
f 360/441/441 266/438/438 264/440/440
f 264/440/440 266/438/438 263/439/439
f 226/444/444 227/454/454 229/443/443
f 229/443/443 227/454/454 230/458/458
f 229/443/443 230/458/458 228/459/459
f 227/454/454 226/444/444 225/453/453
f 225/453/453 226/444/444 218/445/445
f 225/453/453 218/445/445 217/452/452
f 217/452/452 218/445/445 191/446/446
f 217/452/452 191/446/446 190/451/451
f 190/451/451 191/446/446 173/447/447
f 190/451/451 173/447/447 172/450/450
f 172/450/450 173/447/447 156/448/448
f 172/450/450 156/448/448 159/449/449
f 227/454/454 241/455/455 230/458/458
f 230/458/458 241/455/455 231/457/457
f 231/457/457 241/455/455 235/456/456
f 241/461/461 242/462/462 235/460/460
f 235/460/460 242/462/462 234/465/465
f 234/465/465 242/462/462 244/464/464
f 244/464/464 242/462/462 243/463/463
f 95/467/467 124/489/489 85/466/466
f 85/466/466 124/489/489 117/490/490
f 85/466/466 117/490/490 123/491/491
f 124/489/489 95/467/467 133/488/488
f 133/488/488 95/467/467 102/468/468
f 133/488/488 102/468/468 143/487/487
f 143/487/487 102/468/468 108/469/469
f 143/487/487 108/469/469 151/486/486
f 151/486/486 108/469/469 118/470/470
f 151/486/486 118/470/470 161/485/485
f 161/485/485 118/470/470 242/471/471
f 161/485/485 242/471/471 169/484/484
f 169/484/484 242/471/471 179/483/483
f 179/483/483 242/471/471 201/482/482
f 201/482/482 242/471/471 214/481/481
f 214/481/481 242/471/471 241/472/472
f 214/481/481 241/472/472 216/480/480
f 216/480/480 241/472/472 227/473/473
f 216/480/480 227/473/473 213/499/499
f 213/499/499 227/473/473 225/474/474
f 213/499/499 225/474/474 200/498/498
f 200/498/498 225/474/474 217/475/475
f 200/498/498 217/475/475 178/497/497
f 178/497/497 217/475/475 190/476/476
f 178/497/497 190/476/476 168/496/496
f 168/496/496 190/476/476 172/477/477
f 168/496/496 172/477/477 160/495/495
f 160/495/495 172/477/477 159/478/478
f 160/495/495 159/478/478 150/494/494
f 150/494/494 159/478/478 84/479/479
f 150/494/494 84/479/479 142/493/493
f 142/493/493 84/479/479 132/492/492
f 132/492/492 84/479/479 123/491/491
f 123/491/491 84/479/479 85/466/466
f 240/507/507 252/500/500 239/506/506
f 239/506/506 252/500/500 251/501/501
f 239/506/506 251/501/501 238/505/505
f 238/505/505 251/501/501 250/502/502
f 238/505/505 250/502/502 237/504/504
f 237/504/504 250/502/502 249/503/503
f 240/509/509 236/510/510 252/508/508
f 252/508/508 236/510/510 248/517/517
f 248/517/517 236/510/510 231/513/513
f 248/517/517 231/513/513 235/514/514
f 228/511/511 230/512/512 236/510/510
f 236/510/510 230/512/512 231/513/513
f 234/515/515 247/516/516 235/514/514
f 235/514/514 247/516/516 248/517/517
f 239/519/519 238/520/520 240/518/518
f 240/518/518 238/520/520 237/521/521
f 240/518/518 237/521/521 236/524/524
f 236/524/524 237/521/521 232/522/522
f 236/524/524 232/522/522 233/523/523
f 233/526/526 232/527/527 246/525/525
f 246/525/525 232/527/527 245/528/528
f 249/530/530 245/531/531 237/529/529
f 237/529/529 245/531/531 232/532/532
f 248/534/534 249/537/537 252/533/533
f 252/533/533 249/537/537 250/538/538
f 252/533/533 250/538/538 251/539/539
f 246/535/535 245/536/536 248/534/534
f 248/534/534 245/536/536 249/537/537
f 253/541/541 254/542/542 263/540/540
f 263/540/540 254/542/542 264/553/553
f 264/553/553 254/542/542 257/547/547
f 264/553/553 257/547/547 262/552/552
f 262/552/552 257/547/547 261/551/551
f 261/551/551 257/547/547 260/550/550
f 260/550/550 257/547/547 259/549/549
f 259/549/549 257/547/547 258/548/548
f 257/547/547 254/542/542 255/546/546
f 255/546/546 254/542/542 248/543/543
f 255/546/546 248/543/543 247/544/544
f 247/544/544 256/545/545 255/546/546
f 211/555/555 204/583/583 215/554/554
f 215/554/554 204/583/583 205/584/584
f 215/554/554 205/584/584 212/573/573
f 212/573/573 205/584/584 193/585/585
f 212/573/573 193/585/585 199/572/572
f 199/572/572 193/585/585 181/586/586
f 199/572/572 181/586/586 177/571/571
f 177/571/571 181/586/586 171/587/587
f 177/571/571 171/587/587 167/570/570
f 167/570/570 171/587/587 163/588/588
f 167/570/570 163/588/588 158/569/569
f 158/569/569 163/588/588 153/589/589
f 158/569/569 153/589/589 149/568/568
f 149/568/568 153/589/589 145/590/590
f 149/568/568 145/590/590 141/567/567
f 141/567/567 145/590/590 137/591/591
f 141/567/567 137/591/591 131/566/566
f 131/566/566 137/591/591 129/592/592
f 131/566/566 129/592/592 122/565/565
f 122/565/565 129/592/592 125/574/574
f 122/565/565 125/574/574 116/564/564
f 116/564/564 125/574/574 121/563/563
f 121/563/563 125/574/574 128/575/575
f 121/563/563 128/575/575 130/562/562
f 130/562/562 128/575/575 136/576/576
f 130/562/562 136/576/576 140/561/561
f 140/561/561 136/576/576 144/577/577
f 140/561/561 144/577/577 148/560/560
f 148/560/560 144/577/577 152/578/578
f 148/560/560 152/578/578 157/559/559
f 157/559/559 152/578/578 162/579/579
f 157/559/559 162/579/579 166/558/558
f 166/558/558 162/579/579 170/580/580
f 166/558/558 170/580/580 176/557/557
f 176/557/557 170/580/580 180/581/581
f 176/557/557 180/581/581 198/556/556
f 198/556/556 180/581/581 192/582/582
f 198/556/556 192/582/582 211/555/555
f 211/555/555 192/582/582 204/583/583
f 213/594/594 211/632/632 216/593/593
f 216/593/593 211/632/632 215/613/613
f 216/593/593 215/613/613 214/612/612
f 214/612/612 215/613/613 212/614/614
f 214/612/612 212/614/614 201/611/611
f 201/611/611 212/614/614 199/615/615
f 201/611/611 199/615/615 179/610/610
f 179/610/610 199/615/615 177/616/616
f 179/610/610 177/616/616 169/609/609
f 169/609/609 177/616/616 167/617/617
f 169/609/609 167/617/617 161/608/608
f 161/608/608 167/617/617 158/618/618
f 161/608/608 158/618/618 151/607/607
f 151/607/607 158/618/618 149/619/619
f 151/607/607 149/619/619 143/606/606
f 143/606/606 149/619/619 141/620/620
f 143/606/606 141/620/620 133/605/605
f 133/605/605 141/620/620 131/621/621
f 133/605/605 131/621/621 124/604/604
f 124/604/604 131/621/621 122/622/622
f 124/604/604 122/622/622 117/603/603
f 117/603/603 122/622/622 116/633/633
f 117/634/634 116/623/623 123/602/602
f 123/602/602 116/623/623 121/624/624
f 123/602/602 121/624/624 132/601/601
f 132/601/601 121/624/624 130/625/625
f 132/601/601 130/625/625 142/600/600
f 142/600/600 130/625/625 140/626/626
f 142/600/600 140/626/626 150/599/599
f 150/599/599 140/626/626 148/627/627
f 150/599/599 148/627/627 160/598/598
f 160/598/598 148/627/627 157/628/628
f 160/598/598 157/628/628 168/597/597
f 168/597/597 157/628/628 166/629/629
f 168/597/597 166/629/629 178/596/596
f 178/596/596 166/629/629 176/630/630
f 178/596/596 176/630/630 200/595/595
f 200/595/595 176/630/630 198/631/631
f 200/595/595 198/631/631 213/594/594
f 213/594/594 198/631/631 211/632/632
f 129/636/636 127/673/673 125/635/635
f 125/674/674 127/663/663 126/664/664
f 125/675/675 126/664/664 128/653/653
f 128/653/653 126/664/664 134/665/665
f 128/653/653 134/665/665 136/652/652
f 136/652/652 134/665/665 138/666/666
f 136/652/652 138/666/666 144/651/651
f 144/651/651 138/666/666 146/667/667
f 144/651/651 146/667/667 152/650/650
f 152/650/650 146/667/667 154/668/668
f 152/650/650 154/668/668 162/649/649
f 162/649/649 154/668/668 164/669/669
f 162/649/649 164/669/669 170/648/648
f 170/648/648 164/669/669 174/670/670
f 170/648/648 174/670/670 180/647/647
f 180/647/647 174/670/670 188/671/671
f 180/647/647 188/671/671 192/646/646
f 192/646/646 188/671/671 202/672/672
f 192/646/646 202/672/672 204/645/645
f 204/645/645 202/672/672 206/654/654
f 204/645/645 206/654/654 205/644/644
f 205/644/644 206/654/654 203/655/655
f 205/644/644 203/655/655 193/643/643
f 193/643/643 203/655/655 189/656/656
f 193/643/643 189/656/656 181/642/642
f 181/642/642 189/656/656 175/657/657
f 181/642/642 175/657/657 171/641/641
f 171/641/641 175/657/657 165/658/658
f 171/641/641 165/658/658 163/640/640
f 163/640/640 165/658/658 155/659/659
f 163/640/640 155/659/659 153/639/639
f 153/639/639 155/659/659 147/660/660
f 153/639/639 147/660/660 145/638/638
f 145/638/638 147/660/660 139/661/661
f 145/638/638 139/661/661 137/637/637
f 137/637/637 139/661/661 135/662/662
f 137/637/637 135/662/662 129/636/636
f 129/636/636 135/662/662 127/676/676
f 206/677/677 202/678/678 203/695/695
f 203/695/695 202/678/678 188/679/679
f 203/695/695 188/679/679 189/694/694
f 189/694/694 188/679/679 174/680/680
f 189/694/694 174/680/680 175/693/693
f 175/693/693 174/680/680 164/681/681
f 175/693/693 164/681/681 165/692/692
f 165/692/692 164/681/681 154/682/682
f 165/692/692 154/682/682 155/691/691
f 155/691/691 154/682/682 146/683/683
f 155/691/691 146/683/683 138/684/684
f 138/684/684 134/685/685 155/691/691
f 155/691/691 134/685/685 126/686/686
f 155/691/691 126/686/686 127/687/687
f 127/687/687 135/688/688 155/691/691
f 155/691/691 135/688/688 139/689/689
f 155/691/691 139/689/689 147/690/690
f 159/696/696 156/697/697 84/701/701
f 84/701/701 156/697/697 3/698/698
f 84/701/701 3/698/698 5/699/699
f 5/699/699 86/700/700 84/701/701
f 236/703/703 233/704/704 228/702/702
f 228/702/702 233/704/704 4/711/711
f 228/702/702 4/711/711 229/712/712
f 4/711/711 233/704/704 1/710/710
f 1/710/710 233/704/704 246/705/705
f 1/710/710 246/705/705 347/709/709
f 347/709/709 246/705/705 350/708/708
f 350/708/708 246/705/705 248/706/706
f 350/708/708 248/706/706 254/707/707
f 273/714/714 359/715/715 271/713/713
f 271/713/713 359/715/715 349/716/716
f 280/718/718 257/719/719 279/717/717
f 279/717/717 257/719/719 255/720/720
f 298/722/722 89/723/723 300/721/721
f 300/721/721 89/723/723 91/724/724
f 3/726/726 4/727/727 5/725/725
f 5/725/725 4/727/727 6/730/730
f 6/730/730 4/727/727 2/729/729
f 2/729/729 4/727/727 1/728/728
f 173/732/732 191/733/733 156/731/731
f 156/731/731 191/733/733 3/738/738
f 3/738/738 191/733/733 218/734/734
f 3/738/738 218/734/734 4/737/737
f 4/737/737 218/734/734 226/735/735
f 4/737/737 226/735/735 229/736/736
f 358/740/740 353/745/745 360/739/739
f 360/739/739 353/745/745 350/750/750
f 360/739/739 350/750/750 359/752/752
f 359/752/752 350/750/750 349/751/751
f 358/740/740 357/741/741 353/745/745
f 353/745/745 357/741/741 356/742/742
f 353/745/745 356/742/742 355/743/743
f 355/743/743 354/744/744 353/745/745
f 353/745/745 351/746/746 350/750/750
f 350/750/750 351/746/746 347/749/749
f 347/749/749 351/746/746 348/748/748
f 348/748/748 351/746/746 352/747/747
f 331/754/754 347/798/798 335/753/753
f 335/753/753 347/798/798 348/799/799
f 335/753/753 348/799/799 332/766/766
f 332/766/766 348/799/799 327/765/765
f 327/765/765 348/799/799 322/764/764
f 322/764/764 348/799/799 298/789/789
f 322/764/764 298/789/789 292/790/790
f 331/754/754 326/755/755 347/798/798
f 347/798/798 326/755/755 321/756/756
f 347/798/798 321/756/756 297/796/796
f 297/796/796 321/756/756 291/795/795
f 291/795/795 321/756/756 315/757/757
f 291/795/795 315/757/757 285/794/794
f 285/794/794 315/757/757 310/758/758
f 285/794/794 310/758/758 275/793/793
f 275/793/793 310/758/758 305/759/759
f 275/793/793 305/759/759 302/760/760
f 275/793/793 302/760/760 276/792/792
f 276/792/792 302/760/760 306/761/761
f 276/792/792 306/761/761 311/762/762
f 276/792/792 311/762/762 286/791/791
f 286/791/791 311/762/762 316/763/763
f 286/791/791 316/763/763 292/790/790
f 292/790/790 316/763/763 322/764/764
f 75/768/768 112/784/784 79/767/767
f 79/767/767 112/784/784 113/785/785
f 79/767/767 113/785/785 76/780/780
f 76/780/780 113/785/785 72/779/779
f 72/779/779 113/785/785 105/786/786
f 72/779/779 105/786/786 58/778/778
f 58/778/778 105/786/786 97/787/787
f 58/778/778 97/787/787 45/777/777
f 45/777/777 97/787/787 89/788/788
f 45/777/777 89/788/788 2/800/800
f 2/800/800 89/788/788 298/789/789
f 2/800/800 298/789/789 348/799/799
f 75/768/768 71/769/769 112/784/784
f 112/784/784 71/769/769 104/783/783
f 104/783/783 71/769/769 57/770/770
f 104/783/783 57/770/770 96/782/782
f 96/782/782 57/770/770 44/771/771
f 96/782/782 44/771/771 88/781/781
f 88/781/781 44/771/771 1/797/797
f 88/781/781 1/797/797 347/798/798
f 44/771/771 31/772/772 1/797/797
f 1/797/797 31/772/772 26/773/773
f 1/797/797 26/773/773 24/774/774
f 1/797/797 24/774/774 2/800/800
f 2/800/800 24/774/774 27/775/775
f 2/800/800 27/775/775 32/776/776
f 32/776/776 45/777/777 2/800/800
f 297/796/796 88/781/781 347/798/798
f 244/802/802 6/803/803 234/801/801
f 234/801/801 6/803/803 2/804/804
f 234/801/801 2/804/804 348/805/805
f 234/801/801 348/805/805 247/808/808
f 247/808/808 348/805/805 352/806/806
f 247/808/808 352/806/806 256/807/807
# 360 vertices
# 808 texture params
# 808 normals
# 724 facets

# 1 groups
